<?xml version="1.0" encoding="UTF-8" standalone="no"?>
<!DOCTYPE svg PUBLIC "-//W3C//DTD SVG 1.1//EN"
 "http://www.w3.org/Graphics/SVG/1.1/DTD/svg11.dtd">
<!-- Generated by graphviz version 2.36.0 (20140111.2315)
 -->
<!-- Title: controllers_diagram Pages: 1 -->
<svg width="895pt" height="884pt"
 viewBox="0.00 0.00 895.00 884.00" xmlns="http://www.w3.org/2000/svg" xmlns:xlink="http://www.w3.org/1999/xlink">
<g id="graph0" class="graph" transform="scale(1 1) rotate(0) translate(4 880)">
<title>controllers_diagram</title>
<polygon fill="none" stroke="none" points="-4,4 -4,-880 891,-880 891,4 -4,4"/>
<!-- _diagram_info -->
<g id="node1" class="node"><title>_diagram_info</title>
<text text-anchor="start" x="280" y="-591.6" font-family="Times,serif" font-size="13.00">Controllers diagram</text>
<text text-anchor="start" x="280" y="-577.6" font-family="Times,serif" font-size="13.00">Date: May 08 2016 &#45; 22:43</text>
<text text-anchor="start" x="280" y="-563.6" font-family="Times,serif" font-size="13.00">Migration version: 20160430104852</text>
<text text-anchor="start" x="280" y="-549.6" font-family="Times,serif" font-size="13.00">Generated by RailRoady 1.4.2</text>
<text text-anchor="start" x="280" y="-535.6" font-family="Times,serif" font-size="13.00">http://railroady.prestonlee.com</text>
</g>
<!-- TagsController -->
<g id="node2" class="node"><title>TagsController</title>
<path fill="none" stroke="black" d="M700,-688.5C700,-688.5 774,-688.5 774,-688.5 780,-688.5 786,-694.5 786,-700.5 786,-700.5 786,-814.5 786,-814.5 786,-820.5 780,-826.5 774,-826.5 774,-826.5 700,-826.5 700,-826.5 694,-826.5 688,-820.5 688,-814.5 688,-814.5 688,-700.5 688,-700.5 688,-694.5 694,-688.5 700,-688.5"/>
<text text-anchor="middle" x="737" y="-811.3" font-family="Times,serif" font-size="14.00">TagsController</text>
<polyline fill="none" stroke="black" points="688,-803.5 786,-803.5 "/>
<text text-anchor="start" x="696" y="-788.3" font-family="Times,serif" font-size="14.00">create</text>
<text text-anchor="start" x="696" y="-773.3" font-family="Times,serif" font-size="14.00">destroy</text>
<text text-anchor="start" x="696" y="-758.3" font-family="Times,serif" font-size="14.00">show</text>
<polyline fill="none" stroke="black" points="688,-750.5 786,-750.5 "/>
<polyline fill="none" stroke="black" points="688,-726.5 786,-726.5 "/>
<text text-anchor="start" x="696" y="-711.3" font-family="Times,serif" font-size="14.00">_layout</text>
<text text-anchor="start" x="696" y="-696.3" font-family="Times,serif" font-size="14.00">find_by_type</text>
</g>
<!-- CategoriesController -->
<g id="node3" class="node"><title>CategoriesController</title>
<path fill="none" stroke="black" d="M492,-288.5C492,-288.5 598,-288.5 598,-288.5 604,-288.5 610,-294.5 610,-300.5 610,-300.5 610,-459.5 610,-459.5 610,-465.5 604,-471.5 598,-471.5 598,-471.5 492,-471.5 492,-471.5 486,-471.5 480,-465.5 480,-459.5 480,-459.5 480,-300.5 480,-300.5 480,-294.5 486,-288.5 492,-288.5"/>
<text text-anchor="middle" x="545" y="-456.3" font-family="Times,serif" font-size="14.00">CategoriesController</text>
<polyline fill="none" stroke="black" points="480,-448.5 610,-448.5 "/>
<text text-anchor="start" x="488" y="-433.3" font-family="Times,serif" font-size="14.00">create</text>
<text text-anchor="start" x="488" y="-418.3" font-family="Times,serif" font-size="14.00">destroy</text>
<text text-anchor="start" x="488" y="-403.3" font-family="Times,serif" font-size="14.00">index</text>
<text text-anchor="start" x="488" y="-388.3" font-family="Times,serif" font-size="14.00">show</text>
<text text-anchor="start" x="488" y="-373.3" font-family="Times,serif" font-size="14.00">update</text>
<polyline fill="none" stroke="black" points="480,-365.5 610,-365.5 "/>
<polyline fill="none" stroke="black" points="480,-341.5 610,-341.5 "/>
<text text-anchor="start" x="488" y="-326.3" font-family="Times,serif" font-size="14.00">_layout</text>
<text text-anchor="start" x="488" y="-311.3" font-family="Times,serif" font-size="14.00">category_params</text>
<text text-anchor="start" x="488" y="-296.3" font-family="Times,serif" font-size="14.00">set_category</text>
</g>
<!-- BidsController -->
<g id="node4" class="node"><title>BidsController</title>
<path fill="none" stroke="black" d="M188,-304.5C188,-304.5 261,-304.5 261,-304.5 267,-304.5 273,-310.5 273,-316.5 273,-316.5 273,-475.5 273,-475.5 273,-481.5 267,-487.5 261,-487.5 261,-487.5 188,-487.5 188,-487.5 182,-487.5 176,-481.5 176,-475.5 176,-475.5 176,-316.5 176,-316.5 176,-310.5 182,-304.5 188,-304.5"/>
<text text-anchor="middle" x="224.5" y="-472.3" font-family="Times,serif" font-size="14.00">BidsController</text>
<polyline fill="none" stroke="black" points="176,-464.5 273,-464.5 "/>
<text text-anchor="start" x="184" y="-449.3" font-family="Times,serif" font-size="14.00">create</text>
<text text-anchor="start" x="184" y="-434.3" font-family="Times,serif" font-size="14.00">destroy</text>
<text text-anchor="start" x="184" y="-419.3" font-family="Times,serif" font-size="14.00">index</text>
<text text-anchor="start" x="184" y="-404.3" font-family="Times,serif" font-size="14.00">show</text>
<text text-anchor="start" x="184" y="-389.3" font-family="Times,serif" font-size="14.00">update</text>
<polyline fill="none" stroke="black" points="176,-381.5 273,-381.5 "/>
<polyline fill="none" stroke="black" points="176,-357.5 273,-357.5 "/>
<text text-anchor="start" x="184" y="-342.3" font-family="Times,serif" font-size="14.00">_layout</text>
<text text-anchor="start" x="184" y="-327.3" font-family="Times,serif" font-size="14.00">bid_params</text>
<text text-anchor="start" x="184" y="-312.3" font-family="Times,serif" font-size="14.00">set_bid</text>
</g>
<!-- RegistrationsController -->
<g id="node5" class="node"><title>RegistrationsController</title>
<path fill="none" stroke="black" d="M252,-112.5C252,-112.5 376,-112.5 376,-112.5 382,-112.5 388,-118.5 388,-124.5 388,-124.5 388,-208.5 388,-208.5 388,-214.5 382,-220.5 376,-220.5 376,-220.5 252,-220.5 252,-220.5 246,-220.5 240,-214.5 240,-208.5 240,-208.5 240,-124.5 240,-124.5 240,-118.5 246,-112.5 252,-112.5"/>
<text text-anchor="middle" x="314" y="-205.3" font-family="Times,serif" font-size="14.00">RegistrationsController</text>
<polyline fill="none" stroke="black" points="240,-197.5 388,-197.5 "/>
<polyline fill="none" stroke="black" points="240,-173.5 388,-173.5 "/>
<text text-anchor="start" x="248" y="-158.3" font-family="Times,serif" font-size="14.00">account_update_params</text>
<text text-anchor="start" x="248" y="-143.3" font-family="Times,serif" font-size="14.00">sign_up_params</text>
<polyline fill="none" stroke="black" points="240,-135.5 388,-135.5 "/>
<text text-anchor="start" x="248" y="-120.3" font-family="Times,serif" font-size="14.00">_layout</text>
</g>
<!-- CommunitiesController -->
<g id="node6" class="node"><title>CommunitiesController</title>
<path fill="none" stroke="black" d="M316,-256.5C316,-256.5 438,-256.5 438,-256.5 444,-256.5 450,-262.5 450,-268.5 450,-268.5 450,-487.5 450,-487.5 450,-493.5 444,-499.5 438,-499.5 438,-499.5 316,-499.5 316,-499.5 310,-499.5 304,-493.5 304,-487.5 304,-487.5 304,-268.5 304,-268.5 304,-262.5 310,-256.5 316,-256.5"/>
<text text-anchor="middle" x="377" y="-484.3" font-family="Times,serif" font-size="14.00">CommunitiesController</text>
<polyline fill="none" stroke="black" points="304,-476.5 450,-476.5 "/>
<text text-anchor="start" x="312" y="-461.3" font-family="Times,serif" font-size="14.00">create</text>
<text text-anchor="start" x="312" y="-446.3" font-family="Times,serif" font-size="14.00">destroy</text>
<text text-anchor="start" x="312" y="-431.3" font-family="Times,serif" font-size="14.00">index</text>
<text text-anchor="start" x="312" y="-416.3" font-family="Times,serif" font-size="14.00">join</text>
<text text-anchor="start" x="312" y="-401.3" font-family="Times,serif" font-size="14.00">leave</text>
<text text-anchor="start" x="312" y="-386.3" font-family="Times,serif" font-size="14.00">pictures</text>
<text text-anchor="start" x="312" y="-371.3" font-family="Times,serif" font-size="14.00">show</text>
<text text-anchor="start" x="312" y="-356.3" font-family="Times,serif" font-size="14.00">update</text>
<polyline fill="none" stroke="black" points="304,-348.5 450,-348.5 "/>
<polyline fill="none" stroke="black" points="304,-324.5 450,-324.5 "/>
<text text-anchor="start" x="312" y="-309.3" font-family="Times,serif" font-size="14.00">_layout</text>
<text text-anchor="start" x="312" y="-294.3" font-family="Times,serif" font-size="14.00">community_params</text>
<text text-anchor="start" x="312" y="-279.3" font-family="Times,serif" font-size="14.00">picture_params</text>
<text text-anchor="start" x="312" y="-264.3" font-family="Times,serif" font-size="14.00">set_community</text>
</g>
<!-- UsersController -->
<g id="node7" class="node"><title>UsersController</title>
<path fill="none" stroke="black" d="M652,-320.5C652,-320.5 733,-320.5 733,-320.5 739,-320.5 745,-326.5 745,-332.5 745,-332.5 745,-476.5 745,-476.5 745,-482.5 739,-488.5 733,-488.5 733,-488.5 652,-488.5 652,-488.5 646,-488.5 640,-482.5 640,-476.5 640,-476.5 640,-332.5 640,-332.5 640,-326.5 646,-320.5 652,-320.5"/>
<text text-anchor="middle" x="692.5" y="-473.3" font-family="Times,serif" font-size="14.00">UsersController</text>
<polyline fill="none" stroke="black" points="640,-465.5 745,-465.5 "/>
<text text-anchor="start" x="648" y="-450.3" font-family="Times,serif" font-size="14.00">edit</text>
<text text-anchor="start" x="648" y="-435.3" font-family="Times,serif" font-size="14.00">show</text>
<text text-anchor="start" x="648" y="-420.3" font-family="Times,serif" font-size="14.00">update</text>
<text text-anchor="start" x="648" y="-405.3" font-family="Times,serif" font-size="14.00">userpage_media</text>
<polyline fill="none" stroke="black" points="640,-397.5 745,-397.5 "/>
<polyline fill="none" stroke="black" points="640,-373.5 745,-373.5 "/>
<text text-anchor="start" x="648" y="-358.3" font-family="Times,serif" font-size="14.00">_layout</text>
<text text-anchor="start" x="648" y="-343.3" font-family="Times,serif" font-size="14.00">picture_params</text>
<text text-anchor="start" x="648" y="-328.3" font-family="Times,serif" font-size="14.00">set_user</text>
</g>
<!-- FriendsController -->
<g id="node8" class="node"><title>FriendsController</title>
<path fill="none" stroke="black" d="M636,-0.5C636,-0.5 725,-0.5 725,-0.5 731,-0.5 737,-6.5 737,-12.5 737,-12.5 737,-81.5 737,-81.5 737,-87.5 731,-93.5 725,-93.5 725,-93.5 636,-93.5 636,-93.5 630,-93.5 624,-87.5 624,-81.5 624,-81.5 624,-12.5 624,-12.5 624,-6.5 630,-0.5 636,-0.5"/>
<text text-anchor="middle" x="680.5" y="-78.3" font-family="Times,serif" font-size="14.00">FriendsController</text>
<polyline fill="none" stroke="black" points="624,-70.5 737,-70.5 "/>
<text text-anchor="start" x="632" y="-55.3" font-family="Times,serif" font-size="14.00">index</text>
<polyline fill="none" stroke="black" points="624,-47.5 737,-47.5 "/>
<polyline fill="none" stroke="black" points="624,-23.5 737,-23.5 "/>
<text text-anchor="start" x="632" y="-8.3" font-family="Times,serif" font-size="14.00">_layout</text>
</g>
<!-- CommentsController -->
<g id="node9" class="node"><title>CommentsController</title>
<path fill="none" stroke="black" d="M652,-128.5C652,-128.5 760,-128.5 760,-128.5 766,-128.5 772,-134.5 772,-140.5 772,-140.5 772,-269.5 772,-269.5 772,-275.5 766,-281.5 760,-281.5 760,-281.5 652,-281.5 652,-281.5 646,-281.5 640,-275.5 640,-269.5 640,-269.5 640,-140.5 640,-140.5 640,-134.5 646,-128.5 652,-128.5"/>
<text text-anchor="middle" x="706" y="-266.3" font-family="Times,serif" font-size="14.00">CommentsController</text>
<polyline fill="none" stroke="black" points="640,-258.5 772,-258.5 "/>
<text text-anchor="start" x="648" y="-243.3" font-family="Times,serif" font-size="14.00">create</text>
<text text-anchor="start" x="648" y="-228.3" font-family="Times,serif" font-size="14.00">destroy</text>
<text text-anchor="start" x="648" y="-213.3" font-family="Times,serif" font-size="14.00">index</text>
<text text-anchor="start" x="648" y="-198.3" font-family="Times,serif" font-size="14.00">toggle_like</text>
<polyline fill="none" stroke="black" points="640,-190.5 772,-190.5 "/>
<polyline fill="none" stroke="black" points="640,-166.5 772,-166.5 "/>
<text text-anchor="start" x="648" y="-151.3" font-family="Times,serif" font-size="14.00">_layout</text>
<text text-anchor="start" x="648" y="-136.3" font-family="Times,serif" font-size="14.00">comment_params</text>
</g>
<!-- MessagesController -->
<g id="node10" class="node"><title>MessagesController</title>
<path fill="none" stroke="black" d="M540,-752.5C540,-752.5 641,-752.5 641,-752.5 647,-752.5 653,-758.5 653,-764.5 653,-764.5 653,-863.5 653,-863.5 653,-869.5 647,-875.5 641,-875.5 641,-875.5 540,-875.5 540,-875.5 534,-875.5 528,-869.5 528,-863.5 528,-863.5 528,-764.5 528,-764.5 528,-758.5 534,-752.5 540,-752.5"/>
<text text-anchor="middle" x="590.5" y="-860.3" font-family="Times,serif" font-size="14.00">MessagesController</text>
<polyline fill="none" stroke="black" points="528,-852.5 653,-852.5 "/>
<text text-anchor="start" x="536" y="-837.3" font-family="Times,serif" font-size="14.00">create</text>
<text text-anchor="start" x="536" y="-822.3" font-family="Times,serif" font-size="14.00">destroy</text>
<text text-anchor="start" x="536" y="-807.3" font-family="Times,serif" font-size="14.00">index</text>
<polyline fill="none" stroke="black" points="528,-799.5 653,-799.5 "/>
<polyline fill="none" stroke="black" points="528,-775.5 653,-775.5 "/>
<text text-anchor="start" x="536" y="-760.3" font-family="Times,serif" font-size="14.00">_layout</text>
</g>
<!-- SubscribtionsController -->
<g id="node11" class="node"><title>SubscribtionsController</title>
<path fill="none" stroke="black" d="M652,-528.5C652,-528.5 774,-528.5 774,-528.5 780,-528.5 786,-534.5 786,-540.5 786,-540.5 786,-639.5 786,-639.5 786,-645.5 780,-651.5 774,-651.5 774,-651.5 652,-651.5 652,-651.5 646,-651.5 640,-645.5 640,-639.5 640,-639.5 640,-540.5 640,-540.5 640,-534.5 646,-528.5 652,-528.5"/>
<text text-anchor="middle" x="713" y="-636.3" font-family="Times,serif" font-size="14.00">SubscribtionsController</text>
<polyline fill="none" stroke="black" points="640,-628.5 786,-628.5 "/>
<text text-anchor="start" x="648" y="-613.3" font-family="Times,serif" font-size="14.00">create</text>
<text text-anchor="start" x="648" y="-598.3" font-family="Times,serif" font-size="14.00">destroy</text>
<text text-anchor="start" x="648" y="-583.3" font-family="Times,serif" font-size="14.00">edit</text>
<polyline fill="none" stroke="black" points="640,-575.5 786,-575.5 "/>
<polyline fill="none" stroke="black" points="640,-551.5 786,-551.5 "/>
<text text-anchor="start" x="648" y="-536.3" font-family="Times,serif" font-size="14.00">_layout</text>
</g>
<!-- PicturesController -->
<g id="node12" class="node"><title>PicturesController</title>
<path fill="none" stroke="black" d="M380,-640.5C380,-640.5 472,-640.5 472,-640.5 478,-640.5 484,-646.5 484,-652.5 484,-652.5 484,-781.5 484,-781.5 484,-787.5 478,-793.5 472,-793.5 472,-793.5 380,-793.5 380,-793.5 374,-793.5 368,-787.5 368,-781.5 368,-781.5 368,-652.5 368,-652.5 368,-646.5 374,-640.5 380,-640.5"/>
<text text-anchor="middle" x="426" y="-778.3" font-family="Times,serif" font-size="14.00">PicturesController</text>
<polyline fill="none" stroke="black" points="368,-770.5 484,-770.5 "/>
<text text-anchor="start" x="376" y="-755.3" font-family="Times,serif" font-size="14.00">create</text>
<text text-anchor="start" x="376" y="-740.3" font-family="Times,serif" font-size="14.00">destroy</text>
<text text-anchor="start" x="376" y="-725.3" font-family="Times,serif" font-size="14.00">index</text>
<text text-anchor="start" x="376" y="-710.3" font-family="Times,serif" font-size="14.00">toggle_like</text>
<polyline fill="none" stroke="black" points="368,-702.5 484,-702.5 "/>
<polyline fill="none" stroke="black" points="368,-678.5 484,-678.5 "/>
<text text-anchor="start" x="376" y="-663.3" font-family="Times,serif" font-size="14.00">_layout</text>
<text text-anchor="start" x="376" y="-648.3" font-family="Times,serif" font-size="14.00">picture_params</text>
</g>
<!-- PostsController -->
<g id="node13" class="node"><title>PostsController</title>
<path fill="none" stroke="black" d="M156,-624.5C156,-624.5 233,-624.5 233,-624.5 239,-624.5 245,-630.5 245,-636.5 245,-636.5 245,-780.5 245,-780.5 245,-786.5 239,-792.5 233,-792.5 233,-792.5 156,-792.5 156,-792.5 150,-792.5 144,-786.5 144,-780.5 144,-780.5 144,-636.5 144,-636.5 144,-630.5 150,-624.5 156,-624.5"/>
<text text-anchor="middle" x="194.5" y="-777.3" font-family="Times,serif" font-size="14.00">PostsController</text>
<polyline fill="none" stroke="black" points="144,-769.5 245,-769.5 "/>
<text text-anchor="start" x="152" y="-754.3" font-family="Times,serif" font-size="14.00">create</text>
<text text-anchor="start" x="152" y="-739.3" font-family="Times,serif" font-size="14.00">destroy</text>
<text text-anchor="start" x="152" y="-724.3" font-family="Times,serif" font-size="14.00">index</text>
<text text-anchor="start" x="152" y="-709.3" font-family="Times,serif" font-size="14.00">toggle_like</text>
<polyline fill="none" stroke="black" points="144,-701.5 245,-701.5 "/>
<polyline fill="none" stroke="black" points="144,-677.5 245,-677.5 "/>
<text text-anchor="start" x="152" y="-662.3" font-family="Times,serif" font-size="14.00">_layout</text>
<text text-anchor="start" x="152" y="-647.3" font-family="Times,serif" font-size="14.00">post_params</text>
<text text-anchor="start" x="152" y="-632.3" font-family="Times,serif" font-size="14.00">set_post</text>
</g>
<!-- VideosController -->
<g id="node14" class="node"><title>VideosController</title>
<path fill="none" stroke="black" d="M108,-96.5C108,-96.5 194,-96.5 194,-96.5 200,-96.5 206,-102.5 206,-108.5 206,-108.5 206,-252.5 206,-252.5 206,-258.5 200,-264.5 194,-264.5 194,-264.5 108,-264.5 108,-264.5 102,-264.5 96,-258.5 96,-252.5 96,-252.5 96,-108.5 96,-108.5 96,-102.5 102,-96.5 108,-96.5"/>
<text text-anchor="middle" x="151" y="-249.3" font-family="Times,serif" font-size="14.00">VideosController</text>
<polyline fill="none" stroke="black" points="96,-241.5 206,-241.5 "/>
<text text-anchor="start" x="104" y="-226.3" font-family="Times,serif" font-size="14.00">create</text>
<text text-anchor="start" x="104" y="-211.3" font-family="Times,serif" font-size="14.00">destroy</text>
<text text-anchor="start" x="104" y="-196.3" font-family="Times,serif" font-size="14.00">index</text>
<text text-anchor="start" x="104" y="-181.3" font-family="Times,serif" font-size="14.00">toggle_like</text>
<text text-anchor="start" x="104" y="-166.3" font-family="Times,serif" font-size="14.00">update</text>
<polyline fill="none" stroke="black" points="96,-158.5 206,-158.5 "/>
<polyline fill="none" stroke="black" points="96,-134.5 206,-134.5 "/>
<text text-anchor="start" x="104" y="-119.3" font-family="Times,serif" font-size="14.00">_layout</text>
<text text-anchor="start" x="104" y="-104.3" font-family="Times,serif" font-size="14.00">video_params</text>
</g>
<!-- ApplicationController -->
<g id="node15" class="node"><title>ApplicationController</title>
<path fill="none" stroke="black" d="M12,-480.5C12,-480.5 132,-480.5 132,-480.5 138,-480.5 144,-486.5 144,-492.5 144,-492.5 144,-575.5 144,-575.5 144,-581.5 138,-587.5 132,-587.5 132,-587.5 12,-587.5 12,-587.5 6,-587.5 0,-581.5 0,-575.5 0,-575.5 0,-492.5 0,-492.5 0,-486.5 6,-480.5 12,-480.5"/>
<text text-anchor="middle" x="72" y="-572.3" font-family="Times,serif" font-size="14.00">ApplicationController</text>
<polyline fill="none" stroke="black" points="0,-564.5 144,-564.5 "/>
<text text-anchor="start" x="8" y="-549.3" font-family="Times,serif" font-size="14.00">render_with_protection</text>
<text text-anchor="start" x="8" y="-534.3" font-family="Times,serif" font-size="14.00">set_csrf_cookie_for_ng</text>
<polyline fill="none" stroke="black" points="0,-526.5 144,-526.5 "/>
<text text-anchor="start" x="8" y="-511.3" font-family="Times,serif" font-size="14.00">verified_request?</text>
<polyline fill="none" stroke="black" points="0,-503.5 144,-503.5 "/>
<text text-anchor="start" x="8" y="-488.3" font-family="Times,serif" font-size="14.00">_layout</text>
</g>
<!-- SessionsController -->
<g id="node16" class="node"><title>SessionsController</title>
<path fill="none" stroke="black" d="M780,-0.5C780,-0.5 875,-0.5 875,-0.5 881,-0.5 887,-6.5 887,-12.5 887,-12.5 887,-81.5 887,-81.5 887,-87.5 881,-93.5 875,-93.5 875,-93.5 780,-93.5 780,-93.5 774,-93.5 768,-87.5 768,-81.5 768,-81.5 768,-12.5 768,-12.5 768,-6.5 774,-0.5 780,-0.5"/>
<text text-anchor="middle" x="827.5" y="-78.3" font-family="Times,serif" font-size="14.00">SessionsController</text>
<polyline fill="none" stroke="black" points="768,-70.5 887,-70.5 "/>
<text text-anchor="start" x="776" y="-55.3" font-family="Times,serif" font-size="14.00">destroy</text>
<polyline fill="none" stroke="black" points="768,-47.5 887,-47.5 "/>
<polyline fill="none" stroke="black" points="768,-23.5 887,-23.5 "/>
<text text-anchor="start" x="776" y="-8.3" font-family="Times,serif" font-size="14.00">_layout</text>
</g>
<!-- LotsController -->
<g id="node17" class="node"><title>LotsController</title>
<path fill="none" stroke="black" d="M524,-512.5C524,-512.5 596,-512.5 596,-512.5 602,-512.5 608,-518.5 608,-524.5 608,-524.5 608,-713.5 608,-713.5 608,-719.5 602,-725.5 596,-725.5 596,-725.5 524,-725.5 524,-725.5 518,-725.5 512,-719.5 512,-713.5 512,-713.5 512,-524.5 512,-524.5 512,-518.5 518,-512.5 524,-512.5"/>
<text text-anchor="middle" x="560" y="-710.3" font-family="Times,serif" font-size="14.00">LotsController</text>
<polyline fill="none" stroke="black" points="512,-702.5 608,-702.5 "/>
<text text-anchor="start" x="520" y="-687.3" font-family="Times,serif" font-size="14.00">create</text>
<text text-anchor="start" x="520" y="-672.3" font-family="Times,serif" font-size="14.00">destroy</text>
<text text-anchor="start" x="520" y="-657.3" font-family="Times,serif" font-size="14.00">index</text>
<text text-anchor="start" x="520" y="-642.3" font-family="Times,serif" font-size="14.00">participants</text>
<text text-anchor="start" x="520" y="-627.3" font-family="Times,serif" font-size="14.00">pictures</text>
<text text-anchor="start" x="520" y="-612.3" font-family="Times,serif" font-size="14.00">show</text>
<text text-anchor="start" x="520" y="-597.3" font-family="Times,serif" font-size="14.00">update</text>
<polyline fill="none" stroke="black" points="512,-589.5 608,-589.5 "/>
<polyline fill="none" stroke="black" points="512,-565.5 608,-565.5 "/>
<text text-anchor="start" x="520" y="-550.3" font-family="Times,serif" font-size="14.00">_layout</text>
<text text-anchor="start" x="520" y="-535.3" font-family="Times,serif" font-size="14.00">lot_params</text>
<text text-anchor="start" x="520" y="-520.3" font-family="Times,serif" font-size="14.00">set_lot</text>
</g>
<!-- SearchController -->
<g id="node18" class="node"><title>SearchController</title>
<path fill="none" stroke="black" d="M12,-768.5C12,-768.5 97,-768.5 97,-768.5 103,-768.5 109,-774.5 109,-780.5 109,-780.5 109,-849.5 109,-849.5 109,-855.5 103,-861.5 97,-861.5 97,-861.5 12,-861.5 12,-861.5 6,-861.5 0,-855.5 0,-849.5 0,-849.5 0,-780.5 0,-780.5 0,-774.5 6,-768.5 12,-768.5"/>
<text text-anchor="middle" x="54.5" y="-846.3" font-family="Times,serif" font-size="14.00">SearchController</text>
<polyline fill="none" stroke="black" points="0,-838.5 109,-838.5 "/>
<text text-anchor="start" x="8" y="-823.3" font-family="Times,serif" font-size="14.00">index</text>
<polyline fill="none" stroke="black" points="0,-815.5 109,-815.5 "/>
<polyline fill="none" stroke="black" points="0,-791.5 109,-791.5 "/>
<text text-anchor="start" x="8" y="-776.3" font-family="Times,serif" font-size="14.00">_layout</text>
</g>
<!-- DialoguesController -->
<g id="node19" class="node"><title>DialoguesController</title>
<path fill="none" stroke="black" d="M28,-320.5C28,-320.5 131,-320.5 131,-320.5 137,-320.5 143,-326.5 143,-332.5 143,-332.5 143,-431.5 143,-431.5 143,-437.5 137,-443.5 131,-443.5 131,-443.5 28,-443.5 28,-443.5 22,-443.5 16,-437.5 16,-431.5 16,-431.5 16,-332.5 16,-332.5 16,-326.5 22,-320.5 28,-320.5"/>
<text text-anchor="middle" x="79.5" y="-428.3" font-family="Times,serif" font-size="14.00">DialoguesController</text>
<polyline fill="none" stroke="black" points="16,-420.5 143,-420.5 "/>
<text text-anchor="start" x="24" y="-405.3" font-family="Times,serif" font-size="14.00">destroy</text>
<text text-anchor="start" x="24" y="-390.3" font-family="Times,serif" font-size="14.00">index</text>
<text text-anchor="start" x="24" y="-375.3" font-family="Times,serif" font-size="14.00">show</text>
<polyline fill="none" stroke="black" points="16,-367.5 143,-367.5 "/>
<polyline fill="none" stroke="black" points="16,-343.5 143,-343.5 "/>
<text text-anchor="start" x="24" y="-328.3" font-family="Times,serif" font-size="14.00">_layout</text>
</g>
<!-- SongsController -->
<g id="node20" class="node"><title>SongsController</title>
<path fill="none" stroke="black" d="M492,-80.5C492,-80.5 573,-80.5 573,-80.5 579,-80.5 585,-86.5 585,-92.5 585,-92.5 585,-236.5 585,-236.5 585,-242.5 579,-248.5 573,-248.5 573,-248.5 492,-248.5 492,-248.5 486,-248.5 480,-242.5 480,-236.5 480,-236.5 480,-92.5 480,-92.5 480,-86.5 486,-80.5 492,-80.5"/>
<text text-anchor="middle" x="532.5" y="-233.3" font-family="Times,serif" font-size="14.00">SongsController</text>
<polyline fill="none" stroke="black" points="480,-225.5 585,-225.5 "/>
<text text-anchor="start" x="488" y="-210.3" font-family="Times,serif" font-size="14.00">create</text>
<text text-anchor="start" x="488" y="-195.3" font-family="Times,serif" font-size="14.00">destroy</text>
<text text-anchor="start" x="488" y="-180.3" font-family="Times,serif" font-size="14.00">index</text>
<text text-anchor="start" x="488" y="-165.3" font-family="Times,serif" font-size="14.00">toggle_like</text>
<text text-anchor="start" x="488" y="-150.3" font-family="Times,serif" font-size="14.00">update</text>
<polyline fill="none" stroke="black" points="480,-142.5 585,-142.5 "/>
<polyline fill="none" stroke="black" points="480,-118.5 585,-118.5 "/>
<text text-anchor="start" x="488" y="-103.3" font-family="Times,serif" font-size="14.00">_layout</text>
<text text-anchor="start" x="488" y="-88.3" font-family="Times,serif" font-size="14.00">song_params</text>
</g>
</g>
</svg>
