<?xml version="1.0" encoding="UTF-8" standalone="no"?>
<!DOCTYPE svg PUBLIC "-//W3C//DTD SVG 1.1//EN"
 "http://www.w3.org/Graphics/SVG/1.1/DTD/svg11.dtd">
<!-- Generated by graphviz version 2.36.0 (20140111.2315)
 -->
<!-- Title: models_diagram Pages: 1 -->
<svg width="1928pt" height="1560pt"
 viewBox="0.00 0.00 1928.00 1560.00" xmlns="http://www.w3.org/2000/svg" xmlns:xlink="http://www.w3.org/1999/xlink">
<g id="graph0" class="graph" transform="scale(1 1) rotate(0) translate(4 1556)">
<title>models_diagram</title>
<polygon fill="none" stroke="none" points="-4,4 -4,-1556 1924,-1556 1924,4 -4,4"/>
<!-- _diagram_info -->
<g id="node1" class="node"><title>_diagram_info</title>
<text text-anchor="start" x="8" y="-1515.6" font-family="Times,serif" font-size="13.00">Models diagram</text>
<text text-anchor="start" x="8" y="-1501.6" font-family="Times,serif" font-size="13.00">Date: May 08 2016 &#45; 22:43</text>
<text text-anchor="start" x="8" y="-1487.6" font-family="Times,serif" font-size="13.00">Migration version: 20160430104852</text>
<text text-anchor="start" x="8" y="-1473.6" font-family="Times,serif" font-size="13.00">Generated by RailRoady 1.4.2</text>
<text text-anchor="start" x="8" y="-1459.6" font-family="Times,serif" font-size="13.00">http://railroady.prestonlee.com</text>
</g>
<!-- Mention -->
<g id="node2" class="node"><title>Mention</title>
<path fill="none" stroke="black" d="M244.5,-1430.5C244.5,-1430.5 411.5,-1430.5 411.5,-1430.5 417.5,-1430.5 423.5,-1436.5 423.5,-1442.5 423.5,-1442.5 423.5,-1539.5 423.5,-1539.5 423.5,-1545.5 417.5,-1551.5 411.5,-1551.5 411.5,-1551.5 244.5,-1551.5 244.5,-1551.5 238.5,-1551.5 232.5,-1545.5 232.5,-1539.5 232.5,-1539.5 232.5,-1442.5 232.5,-1442.5 232.5,-1436.5 238.5,-1430.5 244.5,-1430.5"/>
<text text-anchor="middle" x="328" y="-1536.3" font-family="Times,serif" font-size="14.00">Mention</text>
<polyline fill="none" stroke="black" points="232.5,-1528.5 423.5,-1528.5 "/>
<text text-anchor="start" x="240.5" y="-1513.3" font-family="Times,serif" font-size="14.00">id :int(11)</text>
<text text-anchor="start" x="240.5" y="-1498.3" font-family="Times,serif" font-size="14.00">mentioner_type :varchar(255)</text>
<text text-anchor="start" x="240.5" y="-1483.3" font-family="Times,serif" font-size="14.00">mentioner_id :int(11)</text>
<text text-anchor="start" x="240.5" y="-1468.3" font-family="Times,serif" font-size="14.00">mentionable_type :varchar(255)</text>
<text text-anchor="start" x="240.5" y="-1453.3" font-family="Times,serif" font-size="14.00">mentionable_id :int(11)</text>
<text text-anchor="start" x="240.5" y="-1438.3" font-family="Times,serif" font-size="14.00">created_at :datetime</text>
</g>
<!-- Lot -->
<g id="node3" class="node"><title>Lot</title>
<path fill="none" stroke="black" d="M1541.5,-1105C1541.5,-1105 1652.5,-1105 1652.5,-1105 1658.5,-1105 1664.5,-1111 1664.5,-1117 1664.5,-1117 1664.5,-1289 1664.5,-1289 1664.5,-1295 1658.5,-1301 1652.5,-1301 1652.5,-1301 1541.5,-1301 1541.5,-1301 1535.5,-1301 1529.5,-1295 1529.5,-1289 1529.5,-1289 1529.5,-1117 1529.5,-1117 1529.5,-1111 1535.5,-1105 1541.5,-1105"/>
<text text-anchor="middle" x="1597" y="-1285.8" font-family="Times,serif" font-size="14.00">Lot</text>
<polyline fill="none" stroke="black" points="1529.5,-1278 1664.5,-1278 "/>
<text text-anchor="start" x="1537.5" y="-1262.8" font-family="Times,serif" font-size="14.00">id :int(11)</text>
<text text-anchor="start" x="1537.5" y="-1247.8" font-family="Times,serif" font-size="14.00">category_id :int(11)</text>
<text text-anchor="start" x="1537.5" y="-1232.8" font-family="Times,serif" font-size="14.00">user_id :int(11)</text>
<text text-anchor="start" x="1537.5" y="-1217.8" font-family="Times,serif" font-size="14.00">starting_price :int(11)</text>
<text text-anchor="start" x="1537.5" y="-1202.8" font-family="Times,serif" font-size="14.00">current_price :int(11)</text>
<text text-anchor="start" x="1537.5" y="-1187.8" font-family="Times,serif" font-size="14.00">expires_at :datetime</text>
<text text-anchor="start" x="1537.5" y="-1172.8" font-family="Times,serif" font-size="14.00">created_at :datetime</text>
<text text-anchor="start" x="1537.5" y="-1157.8" font-family="Times,serif" font-size="14.00">updated_at :datetime</text>
<text text-anchor="start" x="1537.5" y="-1142.8" font-family="Times,serif" font-size="14.00">title :varchar(255)</text>
<text text-anchor="start" x="1537.5" y="-1127.8" font-family="Times,serif" font-size="14.00">description :text</text>
<text text-anchor="start" x="1537.5" y="-1112.8" font-family="Times,serif" font-size="14.00">lot_type :tinyint(4)</text>
</g>
<!-- Bid -->
<g id="node4" class="node"><title>Bid</title>
<path fill="none" stroke="black" d="M1445.5,-818C1445.5,-818 1552.5,-818 1552.5,-818 1558.5,-818 1564.5,-824 1564.5,-830 1564.5,-830 1564.5,-942 1564.5,-942 1564.5,-948 1558.5,-954 1552.5,-954 1552.5,-954 1445.5,-954 1445.5,-954 1439.5,-954 1433.5,-948 1433.5,-942 1433.5,-942 1433.5,-830 1433.5,-830 1433.5,-824 1439.5,-818 1445.5,-818"/>
<text text-anchor="middle" x="1499" y="-938.8" font-family="Times,serif" font-size="14.00">Bid</text>
<polyline fill="none" stroke="black" points="1433.5,-931 1564.5,-931 "/>
<text text-anchor="start" x="1441.5" y="-915.8" font-family="Times,serif" font-size="14.00">id :int(11)</text>
<text text-anchor="start" x="1441.5" y="-900.8" font-family="Times,serif" font-size="14.00">lot_id :int(11)</text>
<text text-anchor="start" x="1441.5" y="-885.8" font-family="Times,serif" font-size="14.00">user_id :int(11)</text>
<text text-anchor="start" x="1441.5" y="-870.8" font-family="Times,serif" font-size="14.00">price :int(11)</text>
<text text-anchor="start" x="1441.5" y="-855.8" font-family="Times,serif" font-size="14.00">is_final :tinyint(1)</text>
<text text-anchor="start" x="1441.5" y="-840.8" font-family="Times,serif" font-size="14.00">created_at :datetime</text>
<text text-anchor="start" x="1441.5" y="-825.8" font-family="Times,serif" font-size="14.00">updated_at :datetime</text>
</g>
<!-- Lot&#45;&gt;Bid -->
<g id="edge1" class="edge"><title>Lot&#45;&gt;Bid</title>
<path fill="none" stroke="#535cc0" d="M1564.37,-1097.13C1550.84,-1053.63 1535.42,-1004.08 1522.96,-964.024"/>
<ellipse fill="none" stroke="#535cc0" cx="1565.61" cy="-1101.1" rx="4.00001" ry="4.00001"/>
<polygon fill="#535cc0" stroke="#535cc0" points="1522.91,-963.867 1524.24,-952.982 1521.43,-959.093 1519.94,-954.319 1519.94,-954.319 1519.94,-954.319 1521.43,-959.093 1515.65,-955.656 1522.91,-963.867 1522.91,-963.867"/>
</g>
<!-- Picture -->
<g id="node16" class="node"><title>Picture</title>
<path fill="none" stroke="black" d="M1259,-303.5C1259,-303.5 1423,-303.5 1423,-303.5 1429,-303.5 1435,-309.5 1435,-315.5 1435,-315.5 1435,-532.5 1435,-532.5 1435,-538.5 1429,-544.5 1423,-544.5 1423,-544.5 1259,-544.5 1259,-544.5 1253,-544.5 1247,-538.5 1247,-532.5 1247,-532.5 1247,-315.5 1247,-315.5 1247,-309.5 1253,-303.5 1259,-303.5"/>
<text text-anchor="middle" x="1341" y="-529.3" font-family="Times,serif" font-size="14.00">Picture</text>
<polyline fill="none" stroke="black" points="1247,-521.5 1435,-521.5 "/>
<text text-anchor="start" x="1255" y="-506.3" font-family="Times,serif" font-size="14.00">id :int(11)</text>
<text text-anchor="start" x="1255" y="-491.3" font-family="Times,serif" font-size="14.00">user_id :int(11)</text>
<text text-anchor="start" x="1255" y="-476.3" font-family="Times,serif" font-size="14.00">created_at :datetime</text>
<text text-anchor="start" x="1255" y="-461.3" font-family="Times,serif" font-size="14.00">updated_at :datetime</text>
<text text-anchor="start" x="1255" y="-446.3" font-family="Times,serif" font-size="14.00">file_file_name :varchar(255)</text>
<text text-anchor="start" x="1255" y="-431.3" font-family="Times,serif" font-size="14.00">file_content_type :varchar(255)</text>
<text text-anchor="start" x="1255" y="-416.3" font-family="Times,serif" font-size="14.00">file_file_size :int(11)</text>
<text text-anchor="start" x="1255" y="-401.3" font-family="Times,serif" font-size="14.00">file_updated_at :datetime</text>
<text text-anchor="start" x="1255" y="-386.3" font-family="Times,serif" font-size="14.00">url :varchar(255)</text>
<text text-anchor="start" x="1255" y="-371.3" font-family="Times,serif" font-size="14.00">thumb_url :varchar(255)</text>
<text text-anchor="start" x="1255" y="-356.3" font-family="Times,serif" font-size="14.00">medium_url :varchar(255)</text>
<text text-anchor="start" x="1255" y="-341.3" font-family="Times,serif" font-size="14.00">attachable_id :int(11)</text>
<text text-anchor="start" x="1255" y="-326.3" font-family="Times,serif" font-size="14.00">attachable_type :varchar(255)</text>
<text text-anchor="start" x="1255" y="-311.3" font-family="Times,serif" font-size="14.00">likers_count :int(11)</text>
</g>
<!-- Lot&#45;&gt;Picture -->
<g id="edge2" class="edge"><title>Lot&#45;&gt;Picture</title>
<path fill="none" stroke="#15de36" d="M1603.99,-1096.48C1606.13,-1016.14 1602.19,-903.782 1573,-810 1556.44,-756.801 1486.18,-643.167 1427.27,-553.069"/>
<ellipse fill="none" stroke="#15de36" cx="1603.87" cy="-1100.64" rx="4" ry="4"/>
<polygon fill="#15de36" stroke="#15de36" points="1427.27,-553.067 1425.55,-542.236 1424.53,-548.885 1421.79,-544.702 1421.79,-544.702 1421.79,-544.702 1424.53,-548.885 1418.02,-547.169 1427.27,-553.067 1427.27,-553.067"/>
</g>
<!-- Community -->
<g id="node5" class="node"><title>Community</title>
<path fill="none" stroke="black" d="M1198.5,-810.5C1198.5,-810.5 1323.5,-810.5 1323.5,-810.5 1329.5,-810.5 1335.5,-816.5 1335.5,-822.5 1335.5,-822.5 1335.5,-949.5 1335.5,-949.5 1335.5,-955.5 1329.5,-961.5 1323.5,-961.5 1323.5,-961.5 1198.5,-961.5 1198.5,-961.5 1192.5,-961.5 1186.5,-955.5 1186.5,-949.5 1186.5,-949.5 1186.5,-822.5 1186.5,-822.5 1186.5,-816.5 1192.5,-810.5 1198.5,-810.5"/>
<text text-anchor="middle" x="1261" y="-946.3" font-family="Times,serif" font-size="14.00">Community</text>
<polyline fill="none" stroke="black" points="1186.5,-938.5 1335.5,-938.5 "/>
<text text-anchor="start" x="1194.5" y="-923.3" font-family="Times,serif" font-size="14.00">id :int(11)</text>
<text text-anchor="start" x="1194.5" y="-908.3" font-family="Times,serif" font-size="14.00">title :varchar(255)</text>
<text text-anchor="start" x="1194.5" y="-893.3" font-family="Times,serif" font-size="14.00">aim :varchar(255)</text>
<text text-anchor="start" x="1194.5" y="-878.3" font-family="Times,serif" font-size="14.00">description :text</text>
<text text-anchor="start" x="1194.5" y="-863.3" font-family="Times,serif" font-size="14.00">created_at :datetime</text>
<text text-anchor="start" x="1194.5" y="-848.3" font-family="Times,serif" font-size="14.00">updated_at :datetime</text>
<text text-anchor="start" x="1194.5" y="-833.3" font-family="Times,serif" font-size="14.00">avatar_url :varchar(255)</text>
<text text-anchor="start" x="1194.5" y="-818.3" font-family="Times,serif" font-size="14.00">owner_id :int(11)</text>
</g>
<!-- Community&#45;&gt;Picture -->
<g id="edge9" class="edge"><title>Community&#45;&gt;Picture</title>
<path fill="none" stroke="#e87b7f" d="M1275.41,-802.17C1287.39,-733.277 1304.65,-634.01 1318.46,-554.605"/>
<ellipse fill="none" stroke="#e87b7f" cx="1274.67" cy="-806.385" rx="4.00001" ry="4.00001"/>
<polygon fill="#e87b7f" stroke="#e87b7f" points="1318.5,-554.382 1324.65,-545.301 1319.36,-549.456 1320.21,-544.53 1320.21,-544.53 1320.21,-544.53 1319.36,-549.456 1315.78,-543.759 1318.5,-554.382 1318.5,-554.382"/>
</g>
<!-- User -->
<g id="node18" class="node"><title>User</title>
<path fill="none" stroke="black" d="M737,-1015C737,-1015 927,-1015 927,-1015 933,-1015 939,-1021 939,-1027 939,-1027 939,-1379 939,-1379 939,-1385 933,-1391 927,-1391 927,-1391 737,-1391 737,-1391 731,-1391 725,-1385 725,-1379 725,-1379 725,-1027 725,-1027 725,-1021 731,-1015 737,-1015"/>
<text text-anchor="middle" x="832" y="-1375.8" font-family="Times,serif" font-size="14.00">User</text>
<polyline fill="none" stroke="black" points="725,-1368 939,-1368 "/>
<text text-anchor="start" x="733" y="-1352.8" font-family="Times,serif" font-size="14.00">id :int(11)</text>
<text text-anchor="start" x="733" y="-1337.8" font-family="Times,serif" font-size="14.00">email :varchar(255)</text>
<text text-anchor="start" x="733" y="-1322.8" font-family="Times,serif" font-size="14.00">encrypted_password :varchar(255)</text>
<text text-anchor="start" x="733" y="-1307.8" font-family="Times,serif" font-size="14.00">reset_password_token :varchar(255)</text>
<text text-anchor="start" x="733" y="-1292.8" font-family="Times,serif" font-size="14.00">reset_password_sent_at :datetime</text>
<text text-anchor="start" x="733" y="-1277.8" font-family="Times,serif" font-size="14.00">remember_created_at :datetime</text>
<text text-anchor="start" x="733" y="-1262.8" font-family="Times,serif" font-size="14.00">sign_in_count :int(11)</text>
<text text-anchor="start" x="733" y="-1247.8" font-family="Times,serif" font-size="14.00">current_sign_in_at :datetime</text>
<text text-anchor="start" x="733" y="-1232.8" font-family="Times,serif" font-size="14.00">last_sign_in_at :datetime</text>
<text text-anchor="start" x="733" y="-1217.8" font-family="Times,serif" font-size="14.00">current_sign_in_ip :varchar(255)</text>
<text text-anchor="start" x="733" y="-1202.8" font-family="Times,serif" font-size="14.00">last_sign_in_ip :varchar(255)</text>
<text text-anchor="start" x="733" y="-1187.8" font-family="Times,serif" font-size="14.00">created_at :datetime</text>
<text text-anchor="start" x="733" y="-1172.8" font-family="Times,serif" font-size="14.00">updated_at :datetime</text>
<text text-anchor="start" x="733" y="-1157.8" font-family="Times,serif" font-size="14.00">first_name :varchar(255)</text>
<text text-anchor="start" x="733" y="-1142.8" font-family="Times,serif" font-size="14.00">last_name :varchar(255)</text>
<text text-anchor="start" x="733" y="-1127.8" font-family="Times,serif" font-size="14.00">gender :varchar(255)</text>
<text text-anchor="start" x="733" y="-1112.8" font-family="Times,serif" font-size="14.00">avatar_url :varchar(255)</text>
<text text-anchor="start" x="733" y="-1097.8" font-family="Times,serif" font-size="14.00">birth_date :date</text>
<text text-anchor="start" x="733" y="-1082.8" font-family="Times,serif" font-size="14.00">confirmation_token :varchar(255)</text>
<text text-anchor="start" x="733" y="-1067.8" font-family="Times,serif" font-size="14.00">confirmed_at :datetime</text>
<text text-anchor="start" x="733" y="-1052.8" font-family="Times,serif" font-size="14.00">confirmation_sent_at :datetime</text>
<text text-anchor="start" x="733" y="-1037.8" font-family="Times,serif" font-size="14.00">unconfirmed_email :varchar(255)</text>
<text text-anchor="start" x="733" y="-1022.8" font-family="Times,serif" font-size="14.00">likees_count :int(11)</text>
</g>
<!-- Community&#45;&gt;User -->
<g id="edge7" class="edge"><title>Community&#45;&gt;User</title>
<path fill="none" stroke="#5eab79" d="M1265.37,-971.566C1263.23,-980.259 1259.91,-988.602 1255,-996 1185.9,-1100.04 1048.43,-1153.29 948.924,-1179.3"/>
<polygon fill="#5eab79" stroke="#5eab79" points="1265.39,-971.45 1271.72,-962.496 1266.35,-966.542 1267.3,-961.635 1267.3,-961.635 1267.3,-961.635 1266.35,-966.542 1262.89,-960.774 1265.39,-971.45 1265.39,-971.45"/>
<polygon fill="#5eab79" stroke="#5eab79" points="948.802,-1179.33 937.998,-1177.45 943.957,-1180.57 939.113,-1181.81 939.113,-1181.81 939.113,-1181.81 943.957,-1180.57 940.228,-1186.17 948.802,-1179.33 948.802,-1179.33"/>
</g>
<!-- Post -->
<g id="node20" class="node"><title>Post</title>
<path fill="none" stroke="black" d="M964.5,-628C964.5,-628 1109.5,-628 1109.5,-628 1115.5,-628 1121.5,-634 1121.5,-640 1121.5,-640 1121.5,-752 1121.5,-752 1121.5,-758 1115.5,-764 1109.5,-764 1109.5,-764 964.5,-764 964.5,-764 958.5,-764 952.5,-758 952.5,-752 952.5,-752 952.5,-640 952.5,-640 952.5,-634 958.5,-628 964.5,-628"/>
<text text-anchor="middle" x="1037" y="-748.8" font-family="Times,serif" font-size="14.00">Post</text>
<polyline fill="none" stroke="black" points="952.5,-741 1121.5,-741 "/>
<text text-anchor="start" x="960.5" y="-725.8" font-family="Times,serif" font-size="14.00">id :int(11)</text>
<text text-anchor="start" x="960.5" y="-710.8" font-family="Times,serif" font-size="14.00">content :text</text>
<text text-anchor="start" x="960.5" y="-695.8" font-family="Times,serif" font-size="14.00">created_at :datetime</text>
<text text-anchor="start" x="960.5" y="-680.8" font-family="Times,serif" font-size="14.00">updated_at :datetime</text>
<text text-anchor="start" x="960.5" y="-665.8" font-family="Times,serif" font-size="14.00">likers_count :int(11)</text>
<text text-anchor="start" x="960.5" y="-650.8" font-family="Times,serif" font-size="14.00">postable_id :int(11)</text>
<text text-anchor="start" x="960.5" y="-635.8" font-family="Times,serif" font-size="14.00">postable_type :varchar(255)</text>
</g>
<!-- Community&#45;&gt;Post -->
<g id="edge8" class="edge"><title>Community&#45;&gt;Post</title>
<path fill="none" stroke="#2f5d5e" d="M1180.09,-817.095C1162.13,-802.018 1143.01,-785.969 1124.78,-770.673"/>
<ellipse fill="none" stroke="#2f5d5e" cx="1183.35" cy="-819.827" rx="4.00002" ry="4.00002"/>
<polygon fill="#2f5d5e" stroke="#2f5d5e" points="1124.69,-770.598 1119.92,-760.722 1120.86,-767.384 1117.03,-764.169 1117.03,-764.169 1117.03,-764.169 1120.86,-767.384 1114.14,-767.616 1124.69,-770.598 1124.69,-770.598"/>
</g>
<!-- ActsAsTaggableOn::Tagging -->
<g id="node21" class="node"><title>ActsAsTaggableOn::Tagging</title>
<ellipse fill="none" stroke="black" cx="1538" cy="-114" rx="114.085" ry="18"/>
<text text-anchor="middle" x="1538" y="-110.3" font-family="Times,serif" font-size="14.00">ActsAsTaggableOn::Tagging</text>
</g>
<!-- Community&#45;&gt;ActsAsTaggableOn::Tagging -->
<g id="edge3" class="edge"><title>Community&#45;&gt;ActsAsTaggableOn::Tagging</title>
<path fill="none" stroke="#b3154e" d="M1343.35,-851.046C1444.55,-804.259 1611.48,-709.377 1682,-568 1739.13,-453.459 1725.22,-400.481 1682,-280 1660.31,-219.535 1604.53,-167.012 1569.1,-138.284"/>
<ellipse fill="none" stroke="#b3154e" cx="1339.52" cy="-852.803" rx="4.00002" ry="4.00002"/>
<polygon fill="#b3154e" stroke="#b3154e" points="1568.83,-138.067 1563.8,-128.32 1564.91,-134.955 1561,-131.842 1561,-131.842 1561,-131.842 1564.91,-134.955 1558.2,-135.364 1568.83,-138.067 1568.83,-138.067"/>
<text text-anchor="middle" x="1694" y="-590.3" font-family="Times,serif" font-size="14.00">taggings</text>
</g>
<!-- Community&#45;&gt;ActsAsTaggableOn::Tagging -->
<g id="edge5" class="edge"><title>Community&#45;&gt;ActsAsTaggableOn::Tagging</title>
<path fill="none" stroke="#d6149e" d="M1343.23,-843.667C1368.99,-831.737 1397.8,-819.413 1425,-810 1492.84,-786.519 1521.23,-810.222 1582,-772 1664.62,-720.04 1688.2,-693.921 1721,-602 1769.1,-467.179 1766.15,-413.306 1714,-280 1688.3,-214.317 1620.26,-163.65 1576.7,-136.666"/>
<ellipse fill="none" stroke="#d6149e" cx="1339.32" cy="-845.493" rx="4.00002" ry="4.00002"/>
<polygon fill="#d6149e" stroke="#d6149e" points="1576.61,-136.616 1570.4,-127.581 1572.34,-134.022 1568.06,-131.429 1568.06,-131.429 1568.06,-131.429 1572.34,-134.022 1565.73,-135.276 1576.61,-136.616 1576.61,-136.616"/>
<text text-anchor="middle" x="1761" y="-590.3" font-family="Times,serif" font-size="14.00">tag_taggings</text>
</g>
<!-- ActsAsTaggableOn::Tag -->
<g id="node22" class="node"><title>ActsAsTaggableOn::Tag</title>
<ellipse fill="none" stroke="black" cx="607" cy="-114" rx="98.1881" ry="18"/>
<text text-anchor="middle" x="607" y="-110.3" font-family="Times,serif" font-size="14.00">ActsAsTaggableOn::Tag</text>
</g>
<!-- Community&#45;&gt;ActsAsTaggableOn::Tag -->
<g id="edge4" class="edge"><title>Community&#45;&gt;ActsAsTaggableOn::Tag</title>
<path fill="none" stroke="#afcdb0" d="M1177.42,-817.291C1172.03,-814.523 1166.54,-812.056 1161,-810 1043.44,-766.361 690.491,-856.673 598,-772 516.656,-697.532 592.719,-372.715 533,-280 524.58,-266.928 510.661,-275.531 503,-262 499.496,-255.812 500.659,-252.715 503,-246 518.076,-202.763 554.039,-163.087 579.437,-138.991"/>
<polygon fill="#afcdb0" stroke="#afcdb0" points="1177.63,-817.403 1184.23,-826.158 1182.01,-819.808 1186.4,-822.212 1186.4,-822.212 1186.4,-822.212 1182.01,-819.808 1188.56,-818.267 1177.63,-817.403 1177.63,-817.403"/>
<polygon fill="#afcdb0" stroke="#afcdb0" points="579.614,-138.827 590.005,-135.325 583.279,-135.427 586.945,-132.026 586.945,-132.026 586.945,-132.026 583.279,-135.427 583.885,-128.727 579.614,-138.827 579.614,-138.827"/>
<text text-anchor="middle" x="584.5" y="-590.3" font-family="Times,serif" font-size="14.00">base_tags</text>
</g>
<!-- Community&#45;&gt;ActsAsTaggableOn::Tag -->
<g id="edge6" class="edge"><title>Community&#45;&gt;ActsAsTaggableOn::Tag</title>
<path fill="none" stroke="#50a64c" d="M1177.31,-816.971C1171.96,-814.3 1166.51,-811.939 1161,-810 1104.9,-790.245 684.773,-801.13 626,-792 593.605,-786.968 580.307,-792.84 555,-772 382.543,-629.982 369.74,-487.711 452,-280 476.554,-218.001 536.646,-165.706 574.383,-137.485"/>
<polygon fill="#50a64c" stroke="#50a64c" points="1177.4,-817.017 1184.09,-825.707 1181.81,-819.379 1186.21,-821.74 1186.21,-821.74 1186.21,-821.74 1181.81,-819.379 1188.34,-817.774 1177.4,-817.017 1177.4,-817.017"/>
<polygon fill="#50a64c" stroke="#50a64c" points="574.475,-137.418 585.2,-135.13 578.506,-134.46 582.537,-131.502 582.537,-131.502 582.537,-131.502 578.506,-134.46 579.875,-127.874 574.475,-137.418 574.475,-137.418"/>
<text text-anchor="middle" x="433" y="-590.3" font-family="Times,serif" font-size="14.00">tags</text>
</g>
<!-- Like -->
<g id="node6" class="node"><title>Like</title>
<path fill="none" stroke="black" d="M1692.5,-1430.5C1692.5,-1430.5 1835.5,-1430.5 1835.5,-1430.5 1841.5,-1430.5 1847.5,-1436.5 1847.5,-1442.5 1847.5,-1442.5 1847.5,-1539.5 1847.5,-1539.5 1847.5,-1545.5 1841.5,-1551.5 1835.5,-1551.5 1835.5,-1551.5 1692.5,-1551.5 1692.5,-1551.5 1686.5,-1551.5 1680.5,-1545.5 1680.5,-1539.5 1680.5,-1539.5 1680.5,-1442.5 1680.5,-1442.5 1680.5,-1436.5 1686.5,-1430.5 1692.5,-1430.5"/>
<text text-anchor="middle" x="1764" y="-1536.3" font-family="Times,serif" font-size="14.00">Like</text>
<polyline fill="none" stroke="black" points="1680.5,-1528.5 1847.5,-1528.5 "/>
<text text-anchor="start" x="1688.5" y="-1513.3" font-family="Times,serif" font-size="14.00">id :int(11)</text>
<text text-anchor="start" x="1688.5" y="-1498.3" font-family="Times,serif" font-size="14.00">liker_type :varchar(255)</text>
<text text-anchor="start" x="1688.5" y="-1483.3" font-family="Times,serif" font-size="14.00">liker_id :int(11)</text>
<text text-anchor="start" x="1688.5" y="-1468.3" font-family="Times,serif" font-size="14.00">likeable_type :varchar(255)</text>
<text text-anchor="start" x="1688.5" y="-1453.3" font-family="Times,serif" font-size="14.00">likeable_id :int(11)</text>
<text text-anchor="start" x="1688.5" y="-1438.3" font-family="Times,serif" font-size="14.00">created_at :datetime</text>
</g>
<!-- Comment -->
<g id="node7" class="node"><title>Comment</title>
<path fill="none" stroke="black" d="M1044,-1C1044,-1 1218,-1 1218,-1 1224,-1 1230,-7 1230,-13 1230,-13 1230,-215 1230,-215 1230,-221 1224,-227 1218,-227 1218,-227 1044,-227 1044,-227 1038,-227 1032,-221 1032,-215 1032,-215 1032,-13 1032,-13 1032,-7 1038,-1 1044,-1"/>
<text text-anchor="middle" x="1131" y="-211.8" font-family="Times,serif" font-size="14.00">Comment</text>
<polyline fill="none" stroke="black" points="1032,-204 1230,-204 "/>
<text text-anchor="start" x="1040" y="-188.8" font-family="Times,serif" font-size="14.00">id :int(11)</text>
<text text-anchor="start" x="1040" y="-173.8" font-family="Times,serif" font-size="14.00">commentable_id :int(11)</text>
<text text-anchor="start" x="1040" y="-158.8" font-family="Times,serif" font-size="14.00">commentable_type :varchar(255)</text>
<text text-anchor="start" x="1040" y="-143.8" font-family="Times,serif" font-size="14.00">title :varchar(255)</text>
<text text-anchor="start" x="1040" y="-128.8" font-family="Times,serif" font-size="14.00">body :text</text>
<text text-anchor="start" x="1040" y="-113.8" font-family="Times,serif" font-size="14.00">subject :varchar(255)</text>
<text text-anchor="start" x="1040" y="-98.8" font-family="Times,serif" font-size="14.00">user_id :int(11)</text>
<text text-anchor="start" x="1040" y="-83.8" font-family="Times,serif" font-size="14.00">parent_id :int(11)</text>
<text text-anchor="start" x="1040" y="-68.8" font-family="Times,serif" font-size="14.00">lft :int(11)</text>
<text text-anchor="start" x="1040" y="-53.8" font-family="Times,serif" font-size="14.00">rgt :int(11)</text>
<text text-anchor="start" x="1040" y="-38.8" font-family="Times,serif" font-size="14.00">created_at :datetime</text>
<text text-anchor="start" x="1040" y="-23.8" font-family="Times,serif" font-size="14.00">updated_at :datetime</text>
<text text-anchor="start" x="1040" y="-8.8" font-family="Times,serif" font-size="14.00">likers_count :int(11)</text>
</g>
<!-- Comment&#45;&gt;Comment -->
<g id="edge10" class="edge"><title>Comment&#45;&gt;Comment</title>
<path fill="none" stroke="#f11708" d="M1237.44,-132.343C1244.03,-128.01 1248,-121.896 1248,-114 1248,-106.762 1244.66,-101.022 1239.03,-96.7772"/>
<ellipse fill="none" stroke="#f11708" cx="1233.59" cy="-134.283" rx="4.00002" ry="4.00002"/>
<polygon fill="#f11708" stroke="#f11708" points="1238.82,-96.6628 1232.15,-87.9562 1234.42,-94.29 1230.01,-91.9173 1230.01,-91.9173 1230.01,-91.9173 1234.42,-94.29 1227.88,-95.8783 1238.82,-96.6628 1238.82,-96.6628"/>
<text text-anchor="middle" x="1270.5" y="-110.3" font-family="Times,serif" font-size="14.00">children</text>
</g>
<!-- UsersRole -->
<g id="node8" class="node"><title>UsersRole</title>
<path fill="none" stroke="black" d="M543.5,-833C543.5,-833 650.5,-833 650.5,-833 656.5,-833 662.5,-839 662.5,-845 662.5,-845 662.5,-927 662.5,-927 662.5,-933 656.5,-939 650.5,-939 650.5,-939 543.5,-939 543.5,-939 537.5,-939 531.5,-933 531.5,-927 531.5,-927 531.5,-845 531.5,-845 531.5,-839 537.5,-833 543.5,-833"/>
<text text-anchor="middle" x="597" y="-923.8" font-family="Times,serif" font-size="14.00">UsersRole</text>
<polyline fill="none" stroke="black" points="531.5,-916 662.5,-916 "/>
<text text-anchor="start" x="539.5" y="-900.8" font-family="Times,serif" font-size="14.00">id :int(11)</text>
<text text-anchor="start" x="539.5" y="-885.8" font-family="Times,serif" font-size="14.00">user_id :int(11)</text>
<text text-anchor="start" x="539.5" y="-870.8" font-family="Times,serif" font-size="14.00">role_id :int(11)</text>
<text text-anchor="start" x="539.5" y="-855.8" font-family="Times,serif" font-size="14.00">created_at :datetime</text>
<text text-anchor="start" x="539.5" y="-840.8" font-family="Times,serif" font-size="14.00">updated_at :datetime</text>
</g>
<!-- Role -->
<g id="node9" class="node"><title>Role</title>
<path fill="none" stroke="black" d="M453.5,-1445.5C453.5,-1445.5 560.5,-1445.5 560.5,-1445.5 566.5,-1445.5 572.5,-1451.5 572.5,-1457.5 572.5,-1457.5 572.5,-1524.5 572.5,-1524.5 572.5,-1530.5 566.5,-1536.5 560.5,-1536.5 560.5,-1536.5 453.5,-1536.5 453.5,-1536.5 447.5,-1536.5 441.5,-1530.5 441.5,-1524.5 441.5,-1524.5 441.5,-1457.5 441.5,-1457.5 441.5,-1451.5 447.5,-1445.5 453.5,-1445.5"/>
<text text-anchor="middle" x="507" y="-1521.3" font-family="Times,serif" font-size="14.00">Role</text>
<polyline fill="none" stroke="black" points="441.5,-1513.5 572.5,-1513.5 "/>
<text text-anchor="start" x="449.5" y="-1498.3" font-family="Times,serif" font-size="14.00">id :int(11)</text>
<text text-anchor="start" x="449.5" y="-1483.3" font-family="Times,serif" font-size="14.00">name :varchar(255)</text>
<text text-anchor="start" x="449.5" y="-1468.3" font-family="Times,serif" font-size="14.00">created_at :datetime</text>
<text text-anchor="start" x="449.5" y="-1453.3" font-family="Times,serif" font-size="14.00">updated_at :datetime</text>
</g>
<!-- Role&#45;&gt;UsersRole -->
<g id="edge11" class="edge"><title>Role&#45;&gt;UsersRole</title>
<path fill="none" stroke="#4eebf6" d="M490.209,-1437.55C488.724,-1428.42 488.082,-1418.98 489,-1410 506.265,-1241.02 554.132,-1046.04 579.958,-948.822"/>
<ellipse fill="none" stroke="#4eebf6" cx="490.966" cy="-1441.53" rx="4.00001" ry="4.00001"/>
<polygon fill="#4eebf6" stroke="#4eebf6" points="579.959,-948.818 586.886,-940.317 581.248,-943.987 582.538,-939.156 582.538,-939.156 582.538,-939.156 581.248,-943.987 578.191,-937.995 579.959,-948.818 579.959,-948.818"/>
</g>
<!-- Role&#45;&gt;User -->
<g id="edge12" class="edge"><title>Role&#45;&gt;User</title>
<path fill="none" stroke="#7c4e6b" d="M565.553,-1438.47C607.723,-1401.36 665.987,-1350.09 717.28,-1304.95"/>
<polygon fill="#7c4e6b" stroke="#7c4e6b" points="565.288,-1438.71 554.808,-1441.93 561.535,-1442.01 557.781,-1445.31 557.781,-1445.31 557.781,-1445.31 561.535,-1442.01 560.754,-1448.69 565.288,-1438.71 565.288,-1438.71"/>
<polygon fill="#7c4e6b" stroke="#7c4e6b" points="717.288,-1304.95 727.768,-1301.72 721.041,-1301.64 724.795,-1298.34 724.795,-1298.34 724.795,-1298.34 721.041,-1301.64 721.822,-1294.96 717.288,-1304.95 717.288,-1304.95"/>
</g>
<!-- Message -->
<g id="node10" class="node"><title>Message</title>
<path fill="none" stroke="black" d="M619.5,-620.5C619.5,-620.5 726.5,-620.5 726.5,-620.5 732.5,-620.5 738.5,-626.5 738.5,-632.5 738.5,-632.5 738.5,-759.5 738.5,-759.5 738.5,-765.5 732.5,-771.5 726.5,-771.5 726.5,-771.5 619.5,-771.5 619.5,-771.5 613.5,-771.5 607.5,-765.5 607.5,-759.5 607.5,-759.5 607.5,-632.5 607.5,-632.5 607.5,-626.5 613.5,-620.5 619.5,-620.5"/>
<text text-anchor="middle" x="673" y="-756.3" font-family="Times,serif" font-size="14.00">Message</text>
<polyline fill="none" stroke="black" points="607.5,-748.5 738.5,-748.5 "/>
<text text-anchor="start" x="615.5" y="-733.3" font-family="Times,serif" font-size="14.00">id :int(11)</text>
<text text-anchor="start" x="615.5" y="-718.3" font-family="Times,serif" font-size="14.00">text :text</text>
<text text-anchor="start" x="615.5" y="-703.3" font-family="Times,serif" font-size="14.00">sender_id :int(11)</text>
<text text-anchor="start" x="615.5" y="-688.3" font-family="Times,serif" font-size="14.00">user_id :int(11)</text>
<text text-anchor="start" x="615.5" y="-673.3" font-family="Times,serif" font-size="14.00">created_at :datetime</text>
<text text-anchor="start" x="615.5" y="-658.3" font-family="Times,serif" font-size="14.00">updated_at :datetime</text>
<text text-anchor="start" x="615.5" y="-643.3" font-family="Times,serif" font-size="14.00">dialogue_id :int(11)</text>
<text text-anchor="start" x="615.5" y="-628.3" font-family="Times,serif" font-size="14.00">viewed :tinyint(1)</text>
</g>
<!-- Message&#45;&gt;Picture -->
<g id="edge13" class="edge"><title>Message&#45;&gt;Picture</title>
<path fill="none" stroke="#6430d7" d="M746.398,-672.608C800.431,-656.615 875.865,-635.308 943,-620 1006.83,-605.445 1177.21,-602.26 1233,-568 1240.79,-563.218 1248.21,-557.65 1255.25,-551.541"/>
<ellipse fill="none" stroke="#6430d7" cx="742.419" cy="-673.79" rx="4.00001" ry="4.00001"/>
<polygon fill="#6430d7" stroke="#6430d7" points="1255.35,-551.45 1265.77,-548.034 1259.04,-548.08 1262.74,-544.71 1262.74,-544.71 1262.74,-544.71 1259.04,-548.08 1259.7,-541.386 1255.35,-551.45 1255.35,-551.45"/>
</g>
<!-- Video -->
<g id="node17" class="node"><title>Video</title>
<path fill="none" stroke="black" d="M587,-303.5C587,-303.5 751,-303.5 751,-303.5 757,-303.5 763,-309.5 763,-315.5 763,-315.5 763,-532.5 763,-532.5 763,-538.5 757,-544.5 751,-544.5 751,-544.5 587,-544.5 587,-544.5 581,-544.5 575,-538.5 575,-532.5 575,-532.5 575,-315.5 575,-315.5 575,-309.5 581,-303.5 587,-303.5"/>
<text text-anchor="middle" x="669" y="-529.3" font-family="Times,serif" font-size="14.00">Video</text>
<polyline fill="none" stroke="black" points="575,-521.5 763,-521.5 "/>
<text text-anchor="start" x="583" y="-506.3" font-family="Times,serif" font-size="14.00">id :int(11)</text>
<text text-anchor="start" x="583" y="-491.3" font-family="Times,serif" font-size="14.00">url :varchar(255)</text>
<text text-anchor="start" x="583" y="-476.3" font-family="Times,serif" font-size="14.00">user_id :int(11)</text>
<text text-anchor="start" x="583" y="-461.3" font-family="Times,serif" font-size="14.00">title :varchar(255)</text>
<text text-anchor="start" x="583" y="-446.3" font-family="Times,serif" font-size="14.00">created_at :datetime</text>
<text text-anchor="start" x="583" y="-431.3" font-family="Times,serif" font-size="14.00">updated_at :datetime</text>
<text text-anchor="start" x="583" y="-416.3" font-family="Times,serif" font-size="14.00">attachable_id :int(11)</text>
<text text-anchor="start" x="583" y="-401.3" font-family="Times,serif" font-size="14.00">attachable_type :varchar(255)</text>
<text text-anchor="start" x="583" y="-386.3" font-family="Times,serif" font-size="14.00">owners :int(11)</text>
<text text-anchor="start" x="583" y="-371.3" font-family="Times,serif" font-size="14.00">likers_count :int(11)</text>
<text text-anchor="start" x="583" y="-356.3" font-family="Times,serif" font-size="14.00">file_file_name :varchar(255)</text>
<text text-anchor="start" x="583" y="-341.3" font-family="Times,serif" font-size="14.00">file_content_type :varchar(255)</text>
<text text-anchor="start" x="583" y="-326.3" font-family="Times,serif" font-size="14.00">file_file_size :int(11)</text>
<text text-anchor="start" x="583" y="-311.3" font-family="Times,serif" font-size="14.00">file_updated_at :datetime</text>
</g>
<!-- Message&#45;&gt;Video -->
<g id="edge15" class="edge"><title>Message&#45;&gt;Video</title>
<path fill="none" stroke="#7abcf7" d="M671.772,-612.082C671.503,-593.923 671.212,-574.279 670.923,-554.781"/>
<ellipse fill="none" stroke="#7abcf7" cx="671.832" cy="-616.149" rx="4" ry="4"/>
<polygon fill="#7abcf7" stroke="#7abcf7" points="670.92,-554.605 675.271,-544.54 670.846,-549.606 670.772,-544.607 670.772,-544.607 670.772,-544.607 670.846,-549.606 666.272,-544.673 670.92,-554.605 670.92,-554.605"/>
</g>
<!-- Song -->
<g id="node19" class="node"><title>Song</title>
<path fill="none" stroke="black" d="M851,-281C851,-281 1015,-281 1015,-281 1021,-281 1027,-287 1027,-293 1027,-293 1027,-555 1027,-555 1027,-561 1021,-567 1015,-567 1015,-567 851,-567 851,-567 845,-567 839,-561 839,-555 839,-555 839,-293 839,-293 839,-287 845,-281 851,-281"/>
<text text-anchor="middle" x="933" y="-551.8" font-family="Times,serif" font-size="14.00">Song</text>
<polyline fill="none" stroke="black" points="839,-544 1027,-544 "/>
<text text-anchor="start" x="847" y="-528.8" font-family="Times,serif" font-size="14.00">id :int(11)</text>
<text text-anchor="start" x="847" y="-513.8" font-family="Times,serif" font-size="14.00">url :varchar(255)</text>
<text text-anchor="start" x="847" y="-498.8" font-family="Times,serif" font-size="14.00">user_id :int(11)</text>
<text text-anchor="start" x="847" y="-483.8" font-family="Times,serif" font-size="14.00">title :varchar(255)</text>
<text text-anchor="start" x="847" y="-468.8" font-family="Times,serif" font-size="14.00">performer :varchar(255)</text>
<text text-anchor="start" x="847" y="-453.8" font-family="Times,serif" font-size="14.00">genre :varchar(255)</text>
<text text-anchor="start" x="847" y="-438.8" font-family="Times,serif" font-size="14.00">created_at :datetime</text>
<text text-anchor="start" x="847" y="-423.8" font-family="Times,serif" font-size="14.00">updated_at :datetime</text>
<text text-anchor="start" x="847" y="-408.8" font-family="Times,serif" font-size="14.00">metadata :text</text>
<text text-anchor="start" x="847" y="-393.8" font-family="Times,serif" font-size="14.00">attachable_id :int(11)</text>
<text text-anchor="start" x="847" y="-378.8" font-family="Times,serif" font-size="14.00">attachable_type :varchar(255)</text>
<text text-anchor="start" x="847" y="-363.8" font-family="Times,serif" font-size="14.00">owners :int(11)</text>
<text text-anchor="start" x="847" y="-348.8" font-family="Times,serif" font-size="14.00">likers_count :int(11)</text>
<text text-anchor="start" x="847" y="-333.8" font-family="Times,serif" font-size="14.00">file_file_name :varchar(255)</text>
<text text-anchor="start" x="847" y="-318.8" font-family="Times,serif" font-size="14.00">file_content_type :varchar(255)</text>
<text text-anchor="start" x="847" y="-303.8" font-family="Times,serif" font-size="14.00">file_file_size :int(11)</text>
<text text-anchor="start" x="847" y="-288.8" font-family="Times,serif" font-size="14.00">file_updated_at :datetime</text>
</g>
<!-- Message&#45;&gt;Song -->
<g id="edge14" class="edge"><title>Message&#45;&gt;Song</title>
<path fill="none" stroke="#b5a364" d="M722.013,-614.151C731.226,-603.508 741.597,-593.657 753,-586 780.384,-567.613 797.49,-586.199 825,-568 826.897,-566.745 828.774,-565.445 830.631,-564.103"/>
<ellipse fill="none" stroke="#b5a364" cx="719.284" cy="-617.426" rx="4.00002" ry="4.00002"/>
<polygon fill="#b5a364" stroke="#b5a364" points="830.7,-564.05 841.375,-561.538 834.669,-561.008 838.637,-557.967 838.637,-557.967 838.637,-557.967 834.669,-561.008 835.9,-554.395 830.7,-564.05 830.7,-564.05"/>
</g>
<!-- Friendship -->
<g id="node11" class="node"><title>Friendship</title>
<path fill="none" stroke="black" d="M872.5,-833C872.5,-833 979.5,-833 979.5,-833 985.5,-833 991.5,-839 991.5,-845 991.5,-845 991.5,-927 991.5,-927 991.5,-933 985.5,-939 979.5,-939 979.5,-939 872.5,-939 872.5,-939 866.5,-939 860.5,-933 860.5,-927 860.5,-927 860.5,-845 860.5,-845 860.5,-839 866.5,-833 872.5,-833"/>
<text text-anchor="middle" x="926" y="-923.8" font-family="Times,serif" font-size="14.00">Friendship</text>
<polyline fill="none" stroke="black" points="860.5,-916 991.5,-916 "/>
<text text-anchor="start" x="868.5" y="-900.8" font-family="Times,serif" font-size="14.00">id :int(11)</text>
<text text-anchor="start" x="868.5" y="-885.8" font-family="Times,serif" font-size="14.00">user_id :int(11)</text>
<text text-anchor="start" x="868.5" y="-870.8" font-family="Times,serif" font-size="14.00">friend_id :int(11)</text>
<text text-anchor="start" x="868.5" y="-855.8" font-family="Times,serif" font-size="14.00">created_at :datetime</text>
<text text-anchor="start" x="868.5" y="-840.8" font-family="Times,serif" font-size="14.00">updated_at :datetime</text>
</g>
<!-- Category -->
<g id="node12" class="node"><title>Category</title>
<path fill="none" stroke="black" d="M1543.5,-1445.5C1543.5,-1445.5 1650.5,-1445.5 1650.5,-1445.5 1656.5,-1445.5 1662.5,-1451.5 1662.5,-1457.5 1662.5,-1457.5 1662.5,-1524.5 1662.5,-1524.5 1662.5,-1530.5 1656.5,-1536.5 1650.5,-1536.5 1650.5,-1536.5 1543.5,-1536.5 1543.5,-1536.5 1537.5,-1536.5 1531.5,-1530.5 1531.5,-1524.5 1531.5,-1524.5 1531.5,-1457.5 1531.5,-1457.5 1531.5,-1451.5 1537.5,-1445.5 1543.5,-1445.5"/>
<text text-anchor="middle" x="1597" y="-1521.3" font-family="Times,serif" font-size="14.00">Category</text>
<polyline fill="none" stroke="black" points="1531.5,-1513.5 1662.5,-1513.5 "/>
<text text-anchor="start" x="1539.5" y="-1498.3" font-family="Times,serif" font-size="14.00">id :int(11)</text>
<text text-anchor="start" x="1539.5" y="-1483.3" font-family="Times,serif" font-size="14.00">name :varchar(255)</text>
<text text-anchor="start" x="1539.5" y="-1468.3" font-family="Times,serif" font-size="14.00">created_at :datetime</text>
<text text-anchor="start" x="1539.5" y="-1453.3" font-family="Times,serif" font-size="14.00">updated_at :datetime</text>
</g>
<!-- Category&#45;&gt;Lot -->
<g id="edge16" class="edge"><title>Category&#45;&gt;Lot</title>
<path fill="none" stroke="#aec48b" d="M1597,-1436.93C1597,-1401.68 1597,-1354.17 1597,-1311.25"/>
<ellipse fill="none" stroke="#aec48b" cx="1597" cy="-1441.31" rx="4" ry="4"/>
<polygon fill="#aec48b" stroke="#aec48b" points="1597,-1311.03 1601.5,-1301.03 1597,-1306.03 1597,-1301.03 1597,-1301.03 1597,-1301.03 1597,-1306.03 1592.5,-1301.03 1597,-1311.03 1597,-1311.03"/>
</g>
<!-- Dialogue -->
<g id="node13" class="node"><title>Dialogue</title>
<path fill="none" stroke="black" d="M658.5,-1445.5C658.5,-1445.5 765.5,-1445.5 765.5,-1445.5 771.5,-1445.5 777.5,-1451.5 777.5,-1457.5 777.5,-1457.5 777.5,-1524.5 777.5,-1524.5 777.5,-1530.5 771.5,-1536.5 765.5,-1536.5 765.5,-1536.5 658.5,-1536.5 658.5,-1536.5 652.5,-1536.5 646.5,-1530.5 646.5,-1524.5 646.5,-1524.5 646.5,-1457.5 646.5,-1457.5 646.5,-1451.5 652.5,-1445.5 658.5,-1445.5"/>
<text text-anchor="middle" x="712" y="-1521.3" font-family="Times,serif" font-size="14.00">Dialogue</text>
<polyline fill="none" stroke="black" points="646.5,-1513.5 777.5,-1513.5 "/>
<text text-anchor="start" x="654.5" y="-1498.3" font-family="Times,serif" font-size="14.00">id :int(11)</text>
<text text-anchor="start" x="654.5" y="-1483.3" font-family="Times,serif" font-size="14.00">title :varchar(255)</text>
<text text-anchor="start" x="654.5" y="-1468.3" font-family="Times,serif" font-size="14.00">created_at :datetime</text>
<text text-anchor="start" x="654.5" y="-1453.3" font-family="Times,serif" font-size="14.00">updated_at :datetime</text>
</g>
<!-- Dialogue&#45;&gt;Message -->
<g id="edge18" class="edge"><title>Dialogue&#45;&gt;Message</title>
<path fill="none" stroke="#614282" d="M686.361,-1437.89C642.244,-1345.01 553.664,-1143.51 522,-962 510.39,-895.449 491.756,-870.407 522,-810 538.344,-777.356 569.093,-751.713 598.6,-733.164"/>
<ellipse fill="none" stroke="#614282" cx="688.123" cy="-1441.59" rx="4.00002" ry="4.00002"/>
<polygon fill="#614282" stroke="#614282" points="598.744,-733.076 609.626,-731.723 603.015,-730.477 607.287,-727.878 607.287,-727.878 607.287,-727.878 603.015,-730.477 604.948,-724.034 598.744,-733.076 598.744,-733.076"/>
</g>
<!-- Dialogue&#45;&gt;User -->
<g id="edge17" class="edge"><title>Dialogue&#45;&gt;User</title>
<path fill="none" stroke="#86cdf4" d="M734.733,-1435.82C739.284,-1424.97 744.309,-1413 749.605,-1400.37"/>
<polygon fill="#86cdf4" stroke="#86cdf4" points="734.619,-1436.09 726.6,-1443.57 732.685,-1440.7 730.75,-1445.31 730.75,-1445.31 730.75,-1445.31 732.685,-1440.7 734.9,-1447.05 734.619,-1436.09 734.619,-1436.09"/>
<polygon fill="#86cdf4" stroke="#86cdf4" points="749.638,-1400.3 757.657,-1392.82 751.573,-1395.68 753.507,-1391.07 753.507,-1391.07 753.507,-1391.07 751.573,-1395.68 749.358,-1389.33 749.638,-1400.3 749.638,-1400.3"/>
</g>
<!-- Ability -->
<g id="node14" class="node"><title>Ability</title>
<polygon fill="none" stroke="black" points="1865.5,-1468 1865.5,-1514 1920.5,-1514 1920.5,-1468 1865.5,-1468"/>
<text text-anchor="middle" x="1893" y="-1498.8" font-family="Times,serif" font-size="14.00">Ability</text>
<polyline fill="none" stroke="black" points="1865.5,-1491 1920.5,-1491 "/>
<text text-anchor="middle" x="1893" y="-1475.8" font-family="Times,serif" font-size="14.00"> </text>
</g>
<!-- Subscription -->
<g id="node15" class="node"><title>Subscription</title>
<path fill="none" stroke="black" d="M1030,-825.5C1030,-825.5 1140,-825.5 1140,-825.5 1146,-825.5 1152,-831.5 1152,-837.5 1152,-837.5 1152,-934.5 1152,-934.5 1152,-940.5 1146,-946.5 1140,-946.5 1140,-946.5 1030,-946.5 1030,-946.5 1024,-946.5 1018,-940.5 1018,-934.5 1018,-934.5 1018,-837.5 1018,-837.5 1018,-831.5 1024,-825.5 1030,-825.5"/>
<text text-anchor="middle" x="1085" y="-931.3" font-family="Times,serif" font-size="14.00">Subscription</text>
<polyline fill="none" stroke="black" points="1018,-923.5 1152,-923.5 "/>
<text text-anchor="start" x="1026" y="-908.3" font-family="Times,serif" font-size="14.00">id :int(11)</text>
<text text-anchor="start" x="1026" y="-893.3" font-family="Times,serif" font-size="14.00">leader_id :int(11)</text>
<text text-anchor="start" x="1026" y="-878.3" font-family="Times,serif" font-size="14.00">subscriber_id :int(11)</text>
<text text-anchor="start" x="1026" y="-863.3" font-family="Times,serif" font-size="14.00">created_at :datetime</text>
<text text-anchor="start" x="1026" y="-848.3" font-family="Times,serif" font-size="14.00">updated_at :datetime</text>
<text text-anchor="start" x="1026" y="-833.3" font-family="Times,serif" font-size="14.00">viewed :tinyint(1)</text>
</g>
<!-- Picture&#45;&gt;Comment -->
<g id="edge23" class="edge"><title>Picture&#45;&gt;Comment</title>
<path fill="none" stroke="#e4b095" d="M1248.72,-296.823C1243.54,-291.017 1238.29,-285.377 1233,-280 1223.9,-270.743 1218.36,-271.929 1210,-262 1203.14,-253.856 1196.62,-245.021 1190.49,-235.861"/>
<ellipse fill="none" stroke="#e4b095" cx="1251.66" cy="-300.179" rx="4.00002" ry="4.00002"/>
<polygon fill="#e4b095" stroke="#e4b095" points="1190.42,-235.751 1188.74,-224.914 1187.69,-231.559 1184.97,-227.368 1184.97,-227.368 1184.97,-227.368 1187.69,-231.559 1181.2,-229.821 1190.42,-235.751 1190.42,-235.751"/>
<text text-anchor="middle" x="1259" y="-250.3" font-family="Times,serif" font-size="14.00">comment_threads</text>
</g>
<!-- Picture&#45;&gt;ActsAsTaggableOn::Tagging -->
<g id="edge19" class="edge"><title>Picture&#45;&gt;ActsAsTaggableOn::Tagging</title>
<path fill="none" stroke="#babcd8" d="M1441.47,-300.911C1451.2,-293.075 1461.41,-285.956 1472,-280 1507.94,-259.793 1536.83,-293.856 1563,-262 1591.27,-227.592 1570.26,-173.052 1553.43,-140.971"/>
<ellipse fill="none" stroke="#babcd8" cx="1438.23" cy="-303.604" rx="4.00002" ry="4.00002"/>
<polygon fill="#babcd8" stroke="#babcd8" points="1553.42,-140.944 1552.57,-130.011 1551.02,-136.556 1548.62,-132.168 1548.62,-132.168 1548.62,-132.168 1551.02,-136.556 1544.67,-134.326 1553.42,-140.944 1553.42,-140.944"/>
<text text-anchor="middle" x="1594" y="-250.3" font-family="Times,serif" font-size="14.00">taggings</text>
</g>
<!-- Picture&#45;&gt;ActsAsTaggableOn::Tagging -->
<g id="edge21" class="edge"><title>Picture&#45;&gt;ActsAsTaggableOn::Tagging</title>
<path fill="none" stroke="#474d7c" d="M1440.09,-305.923C1450.7,-291.493 1460.93,-276.656 1470,-262 1494.74,-222.048 1516.15,-171.617 1528.04,-141.412"/>
<ellipse fill="none" stroke="#474d7c" cx="1437.57" cy="-309.311" rx="4.00002" ry="4.00002"/>
<polygon fill="#474d7c" stroke="#474d7c" points="1528.08,-141.31 1535.9,-133.616 1529.89,-136.649 1531.7,-131.988 1531.7,-131.988 1531.7,-131.988 1529.89,-136.649 1527.51,-130.359 1528.08,-141.31 1528.08,-141.31"/>
<text text-anchor="middle" x="1513" y="-250.3" font-family="Times,serif" font-size="14.00">tag_taggings</text>
</g>
<!-- Picture&#45;&gt;ActsAsTaggableOn::Tag -->
<g id="edge20" class="edge"><title>Picture&#45;&gt;ActsAsTaggableOn::Tag</title>
<path fill="none" stroke="#ae74a7" d="M1256.07,-296.42C1248.81,-290.252 1241.11,-284.688 1233,-280 1177.16,-247.72 1151.9,-276.267 1089,-262 1067.07,-257.026 1062.43,-252.805 1041,-246 907.689,-203.672 750.319,-156.982 666.536,-132.384"/>
<polygon fill="#ae74a7" stroke="#ae74a7" points="1256.34,-296.663 1260.79,-306.688 1260.07,-300 1263.79,-303.337 1263.79,-303.337 1263.79,-303.337 1260.07,-300 1266.79,-299.987 1256.34,-296.663 1256.34,-296.663"/>
<polygon fill="#ae74a7" stroke="#ae74a7" points="666.532,-132.383 658.203,-125.25 661.734,-130.976 656.936,-129.568 656.936,-129.568 656.936,-129.568 661.734,-130.976 655.669,-133.886 666.532,-132.383 666.532,-132.383"/>
<text text-anchor="middle" x="1115.5" y="-250.3" font-family="Times,serif" font-size="14.00">base_tags</text>
</g>
<!-- Picture&#45;&gt;ActsAsTaggableOn::Tag -->
<g id="edge22" class="edge"><title>Picture&#45;&gt;ActsAsTaggableOn::Tag</title>
<path fill="none" stroke="#cdfa54" d="M1253.41,-296.344C1246.89,-290.411 1240.08,-284.9 1233,-280 1209.76,-263.913 1198.16,-272.706 1172,-262 1158.01,-256.277 1156.34,-250.754 1142,-246 1091.23,-229.172 1075.34,-239.029 1023,-228 893.43,-200.697 744.249,-157.157 664.457,-132.866"/>
<polygon fill="#cdfa54" stroke="#cdfa54" points="1253.68,-296.6 1257.82,-306.753 1257.3,-300.046 1260.92,-303.492 1260.92,-303.492 1260.92,-303.492 1257.3,-300.046 1264.02,-300.232 1253.68,-296.6 1253.68,-296.6"/>
<polygon fill="#cdfa54" stroke="#cdfa54" points="664.171,-132.779 655.921,-125.554 659.389,-131.318 654.607,-129.858 654.607,-129.858 654.607,-129.858 659.389,-131.318 653.292,-134.162 664.171,-132.779 664.171,-132.779"/>
<text text-anchor="middle" x="1183" y="-250.3" font-family="Times,serif" font-size="14.00">tags</text>
</g>
<!-- Video&#45;&gt;Comment -->
<g id="edge29" class="edge"><title>Video&#45;&gt;Comment</title>
<path fill="none" stroke="#b7a4e2" d="M677.658,-295.46C683.561,-277.279 692.282,-260.025 705,-246 785.446,-157.286 924.33,-127.958 1021.59,-118.636"/>
<ellipse fill="none" stroke="#b7a4e2" cx="676.451" cy="-299.472" rx="4.00001" ry="4.00001"/>
<polygon fill="#b7a4e2" stroke="#b7a4e2" points="1021.79,-118.618 1032.16,-122.202 1026.77,-118.169 1031.75,-117.72 1031.75,-117.72 1031.75,-117.72 1026.77,-118.169 1031.35,-113.238 1021.79,-118.618 1021.79,-118.618"/>
<text text-anchor="middle" x="754" y="-250.3" font-family="Times,serif" font-size="14.00">comment_threads</text>
</g>
<!-- Video&#45;&gt;User -->
<g id="edge24" class="edge"><title>Video&#45;&gt;User</title>
<path fill="none" stroke="#8f5853" d="M614.884,-554.182C607.886,-575.813 601.83,-598.288 598,-620 586.265,-686.529 562.954,-714.246 598,-772 616.975,-803.27 648.706,-781.003 671,-810 713.194,-864.88 681.043,-897.053 705,-962 710.286,-976.331 716.269,-990.879 722.687,-1005.36"/>
<polygon fill="#8f5853" stroke="#8f5853" points="614.901,-554.131 622.32,-546.056 616.475,-549.385 618.049,-544.639 618.049,-544.639 618.049,-544.639 616.475,-549.385 613.778,-543.223 614.901,-554.131 614.901,-554.131"/>
<polygon fill="#8f5853" stroke="#8f5853" points="722.86,-1005.74 722.861,-1016.71 724.912,-1010.3 726.964,-1014.86 726.964,-1014.86 726.964,-1014.86 724.912,-1010.3 731.068,-1013.02 722.86,-1005.74 722.86,-1005.74"/>
</g>
<!-- Video&#45;&gt;ActsAsTaggableOn::Tagging -->
<g id="edge25" class="edge"><title>Video&#45;&gt;ActsAsTaggableOn::Tagging</title>
<path fill="none" stroke="#2107f4" d="M760.076,-297.333C765.62,-291.31 771.276,-285.493 777,-280 787.141,-270.269 791.835,-270.536 803,-262 811.77,-255.295 811.702,-249.979 822,-246 921.569,-207.531 1198.37,-253.582 1302,-228 1378.33,-209.157 1459.32,-164.142 1503.78,-136.957"/>
<ellipse fill="none" stroke="#2107f4" cx="757.255" cy="-300.453" rx="4.00002" ry="4.00002"/>
<polygon fill="#2107f4" stroke="#2107f4" points="1503.93,-136.865 1514.8,-135.434 1508.18,-134.236 1512.44,-131.607 1512.44,-131.607 1512.44,-131.607 1508.18,-134.236 1510.07,-127.779 1503.93,-136.865 1503.93,-136.865"/>
<text text-anchor="middle" x="845" y="-250.3" font-family="Times,serif" font-size="14.00">taggings</text>
</g>
<!-- Video&#45;&gt;ActsAsTaggableOn::Tagging -->
<g id="edge27" class="edge"><title>Video&#45;&gt;ActsAsTaggableOn::Tagging</title>
<path fill="none" stroke="#92c3dd" d="M751.704,-298.097C759.614,-291.232 768.053,-285.079 777,-280 841.153,-243.583 872.43,-286.53 942,-262 954.441,-257.613 954.443,-250.043 967,-246 1108.93,-200.302 1157.54,-264.906 1302,-228 1377.97,-208.592 1458.78,-163.984 1503.37,-136.982"/>
<ellipse fill="none" stroke="#92c3dd" cx="748.723" cy="-300.796" rx="4.00002" ry="4.00002"/>
<polygon fill="#92c3dd" stroke="#92c3dd" points="1503.53,-136.886 1514.41,-135.504 1507.79,-134.276 1512.06,-131.666 1512.06,-131.666 1512.06,-131.666 1507.79,-134.276 1509.71,-127.827 1503.53,-136.886 1503.53,-136.886"/>
<text text-anchor="middle" x="1002" y="-250.3" font-family="Times,serif" font-size="14.00">tag_taggings</text>
</g>
<!-- Video&#45;&gt;ActsAsTaggableOn::Tag -->
<g id="edge26" class="edge"><title>Video&#45;&gt;ActsAsTaggableOn::Tag</title>
<path fill="none" stroke="#815aee" d="M579.781,-295.91C573.738,-290.218 567.468,-284.865 561,-280 543.123,-266.555 526.677,-280.43 514,-262 484.405,-218.974 537.224,-167.003 574.623,-137.802"/>
<polygon fill="#815aee" stroke="#815aee" points="580.17,-296.291 584.164,-306.503 583.742,-299.79 587.314,-303.289 587.314,-303.289 587.314,-303.289 583.742,-299.79 590.463,-300.074 580.17,-296.291 580.17,-296.291"/>
<polygon fill="#815aee" stroke="#815aee" points="574.843,-137.635 585.526,-135.163 578.822,-134.608 582.802,-131.581 582.802,-131.581 582.802,-131.581 578.822,-134.608 580.078,-128 574.843,-137.635 574.843,-137.635"/>
<text text-anchor="middle" x="540.5" y="-250.3" font-family="Times,serif" font-size="14.00">base_tags</text>
</g>
<!-- Video&#45;&gt;ActsAsTaggableOn::Tag -->
<g id="edge28" class="edge"><title>Video&#45;&gt;ActsAsTaggableOn::Tag</title>
<path fill="none" stroke="#4b647f" d="M599.482,-293.789C595.7,-283.236 592.452,-272.565 590,-262 580.439,-220.809 590.2,-171.819 598.389,-142.086"/>
<polygon fill="#4b647f" stroke="#4b647f" points="599.589,-294.076 598.883,-305.019 601.343,-298.758 603.097,-303.44 603.097,-303.44 603.097,-303.44 601.343,-298.758 607.311,-301.862 599.589,-294.076 599.589,-294.076"/>
<polygon fill="#4b647f" stroke="#4b647f" points="598.407,-142.022 605.509,-133.666 599.796,-137.219 601.186,-132.416 601.186,-132.416 601.186,-132.416 599.796,-137.219 596.863,-131.166 598.407,-142.022 598.407,-142.022"/>
<text text-anchor="middle" x="601" y="-250.3" font-family="Times,serif" font-size="14.00">tags</text>
</g>
<!-- User&#45;&gt;Bid -->
<g id="edge44" class="edge"><title>User&#45;&gt;Bid</title>
<path fill="none" stroke="#f22212" d="M947.083,-1175.89C1065.59,-1145.44 1252.3,-1087.31 1393,-996 1408.04,-986.24 1422.56,-973.986 1435.78,-961.249"/>
<ellipse fill="none" stroke="#f22212" cx="942.899" cy="-1176.96" rx="4.00001" ry="4.00001"/>
<polygon fill="#f22212" stroke="#f22212" points="1435.87,-961.161 1446.15,-957.338 1439.43,-957.648 1442.98,-954.135 1442.98,-954.135 1442.98,-954.135 1439.43,-957.648 1439.82,-950.933 1435.87,-961.161 1435.87,-961.161"/>
</g>
<!-- User&#45;&gt;Community -->
<g id="edge33" class="edge"><title>User&#45;&gt;Community</title>
<path fill="none" stroke="#d4472d" d="M946.11,-1122.81C999.898,-1085.01 1064.7,-1038.78 1122,-996 1140.33,-982.317 1159.77,-967.356 1178.13,-953.023"/>
<ellipse fill="none" stroke="#d4472d" cx="942.543" cy="-1125.32" rx="4.00002" ry="4.00002"/>
<polygon fill="#d4472d" stroke="#d4472d" points="1178.6,-952.651 1189.25,-950.032 1182.54,-949.57 1186.48,-946.488 1186.48,-946.488 1186.48,-946.488 1182.54,-949.57 1183.71,-942.944 1178.6,-952.651 1178.6,-952.651"/>
<text text-anchor="middle" x="1193" y="-984.3" font-family="Times,serif" font-size="14.00">own_communities</text>
</g>
<!-- User&#45;&gt;UsersRole -->
<g id="edge34" class="edge"><title>User&#45;&gt;UsersRole</title>
<path fill="none" stroke="#584c20" d="M719.937,-1053.5C705.455,-1034.18 690.851,-1014.64 677,-996 665.315,-980.277 652.748,-963.222 641.114,-947.374"/>
<ellipse fill="none" stroke="#584c20" cx="722.443" cy="-1056.84" rx="4.00002" ry="4.00002"/>
<polygon fill="#584c20" stroke="#584c20" points="641.04,-947.273 638.753,-936.548 638.082,-943.241 635.125,-939.21 635.125,-939.21 635.125,-939.21 638.082,-943.241 631.496,-941.871 641.04,-947.273 641.04,-947.273"/>
</g>
<!-- User&#45;&gt;Message -->
<g id="edge43" class="edge"><title>User&#45;&gt;Message</title>
<path fill="none" stroke="#1b0434" d="M756.617,-1007.13C755.384,-1003.4 754.177,-999.683 753,-996 727.006,-914.678 727.299,-892.411 705,-810 702.51,-800.797 699.862,-791.187 697.197,-781.624"/>
<ellipse fill="none" stroke="#1b0434" cx="757.917" cy="-1011.03" rx="4.00001" ry="4.00001"/>
<polygon fill="#1b0434" stroke="#1b0434" points="697.113,-781.325 698.753,-770.483 695.766,-776.51 694.419,-771.695 694.419,-771.695 694.419,-771.695 695.766,-776.51 690.085,-772.907 697.113,-781.325 697.113,-781.325"/>
</g>
<!-- User&#45;&gt;Friendship -->
<g id="edge39" class="edge"><title>User&#45;&gt;Friendship</title>
<path fill="none" stroke="#785127" d="M936.126,-1006.88C937.155,-1003.25 938.116,-999.621 939,-996 942.672,-980.965 942.706,-964.5 941.04,-949.025"/>
<ellipse fill="none" stroke="#785127" cx="934.904" cy="-1011" rx="4.00001" ry="4.00001"/>
<polygon fill="#785127" stroke="#785127" points="941.029,-948.938 944.183,-938.436 940.375,-943.981 939.722,-939.024 939.722,-939.024 939.722,-939.024 940.375,-943.981 935.26,-939.612 941.029,-948.938 941.029,-948.938"/>
</g>
<!-- User&#45;&gt;Friendship -->
<g id="edge41" class="edge"><title>User&#45;&gt;Friendship</title>
<path fill="none" stroke="#33a5ed" d="M820.011,-1006.92C822.347,-997.68 825.307,-988.656 829,-980 834.727,-966.575 843.448,-954.157 853.358,-943.056"/>
<ellipse fill="none" stroke="#33a5ed" cx="819.1" cy="-1010.84" rx="4.00001" ry="4.00001"/>
<polygon fill="#33a5ed" stroke="#33a5ed" points="853.534,-942.869 863.664,-938.669 856.96,-939.227 860.386,-935.585 860.386,-935.585 860.386,-935.585 856.96,-939.227 857.109,-932.502 853.534,-942.869 853.534,-942.869"/>
<text text-anchor="middle" x="882" y="-984.3" font-family="Times,serif" font-size="14.00">inverse_friendships</text>
</g>
<!-- User&#45;&gt;Subscription -->
<g id="edge35" class="edge"><title>User&#45;&gt;Subscription</title>
<path fill="none" stroke="#16c676" d="M946.394,-1148.1C1005.36,-1113.62 1071.74,-1062.77 1105,-996 1111.02,-983.924 1112.24,-970.285 1110.83,-956.845"/>
<ellipse fill="none" stroke="#16c676" cx="942.708" cy="-1150.22" rx="4.00002" ry="4.00002"/>
<polygon fill="#16c676" stroke="#16c676" points="1110.79,-956.523 1113.74,-945.962 1110.04,-951.58 1109.29,-946.636 1109.29,-946.636 1109.29,-946.636 1110.04,-951.58 1104.84,-947.31 1110.79,-956.523 1110.79,-956.523"/>
</g>
<!-- User&#45;&gt;Subscription -->
<g id="edge37" class="edge"><title>User&#45;&gt;Subscription</title>
<path fill="none" stroke="#1a454e" d="M944.153,-1028.43C956.732,-1011.66 969.789,-995.233 983,-980 988.493,-973.666 998.605,-963.845 1010.4,-952.918"/>
<ellipse fill="none" stroke="#1a454e" cx="941.557" cy="-1031.92" rx="4.00002" ry="4.00002"/>
<polygon fill="#1a454e" stroke="#1a454e" points="1010.57,-952.76 1020.98,-949.306 1014.25,-949.376 1017.93,-945.993 1017.93,-945.993 1017.93,-945.993 1014.25,-949.376 1014.89,-942.68 1010.57,-952.76 1010.57,-952.76"/>
<text text-anchor="middle" x="1042" y="-984.3" font-family="Times,serif" font-size="14.00">reverse_subscriptions</text>
</g>
<!-- User&#45;&gt;Picture -->
<g id="edge31" class="edge"><title>User&#45;&gt;Picture</title>
<path fill="none" stroke="#495834" d="M947.221,-1184.45C1069.66,-1158.98 1257.3,-1098.83 1344,-962 1420.92,-840.619 1404.12,-670.737 1378.58,-554.758"/>
<ellipse fill="none" stroke="#495834" cx="943.171" cy="-1185.28" rx="4.00001" ry="4.00001"/>
<polygon fill="#495834" stroke="#495834" points="1378.53,-554.512 1380.72,-543.768 1377.43,-549.635 1376.33,-544.757 1376.33,-544.757 1376.33,-544.757 1377.43,-549.635 1371.94,-545.746 1378.53,-554.512 1378.53,-554.512"/>
</g>
<!-- User&#45;&gt;User -->
<g id="edge36" class="edge"><title>User&#45;&gt;User</title>
<path fill="none" stroke="#e9b158" d="M949.011,-1208.65C953.446,-1207.17 956,-1205.29 956,-1203 956,-1200.71 953.446,-1198.83 949.011,-1197.35"/>
<polygon fill="#e9b158" stroke="#e9b158" points="948.895,-1208.68 938.148,-1206.49 944.018,-1209.78 939.141,-1210.88 939.141,-1210.88 939.141,-1210.88 944.018,-1209.78 940.135,-1215.27 948.895,-1208.68 948.895,-1208.68"/>
<polygon fill="#e9b158" stroke="#e9b158" points="948.895,-1197.32 940.135,-1190.73 944.018,-1196.22 939.141,-1195.12 939.141,-1195.12 939.141,-1195.12 944.018,-1196.22 938.148,-1199.51 948.895,-1197.32 948.895,-1197.32"/>
<text text-anchor="middle" x="975.5" y="-1199.3" font-family="Times,serif" font-size="14.00">leaders</text>
</g>
<!-- User&#45;&gt;User -->
<g id="edge38" class="edge"><title>User&#45;&gt;User</title>
<path fill="none" stroke="#d59e3b" d="M949.596,-1221.85C975.677,-1219.91 995,-1213.63 995,-1203 995,-1192.37 975.677,-1186.09 949.596,-1184.15"/>
<polygon fill="#d59e3b" stroke="#d59e3b" points="949.282,-1221.87 939.063,-1217.89 944.288,-1222.12 939.295,-1222.38 939.295,-1222.38 939.295,-1222.38 944.288,-1222.12 939.526,-1226.88 949.282,-1221.87 949.282,-1221.87"/>
<polygon fill="#d59e3b" stroke="#d59e3b" points="949.282,-1184.13 939.526,-1179.12 944.288,-1183.88 939.295,-1183.62 939.295,-1183.62 939.295,-1183.62 944.288,-1183.88 939.063,-1188.11 949.282,-1184.13 949.282,-1184.13"/>
<text text-anchor="middle" x="1025.5" y="-1199.3" font-family="Times,serif" font-size="14.00">subscribers</text>
</g>
<!-- User&#45;&gt;User -->
<g id="edge40" class="edge"><title>User&#45;&gt;User</title>
<path fill="none" stroke="#f91d15" d="M949.04,-1231.96C1004.38,-1234.1 1056,-1224.45 1056,-1203 1056,-1181.55 1004.38,-1171.9 949.04,-1174.04"/>
<polygon fill="#f91d15" stroke="#f91d15" points="949.03,-1231.96 939.274,-1226.95 944.037,-1231.7 939.043,-1231.44 939.043,-1231.44 939.043,-1231.44 944.037,-1231.7 938.812,-1235.94 949.03,-1231.96 949.03,-1231.96"/>
<polygon fill="#f91d15" stroke="#f91d15" points="949.03,-1174.04 938.812,-1170.06 944.037,-1174.3 939.043,-1174.56 939.043,-1174.56 939.043,-1174.56 944.037,-1174.3 939.274,-1179.05 949.03,-1174.04 949.03,-1174.04"/>
<text text-anchor="middle" x="1075" y="-1199.3" font-family="Times,serif" font-size="14.00">friends</text>
</g>
<!-- User&#45;&gt;User -->
<g id="edge42" class="edge"><title>User&#45;&gt;User</title>
<path fill="none" stroke="#6936b6" d="M949.291,-1240.39C1020.65,-1246.75 1094,-1234.28 1094,-1203 1094,-1171.72 1020.65,-1159.25 949.291,-1165.61"/>
<polygon fill="#6936b6" stroke="#6936b6" points="949.191,-1240.38 939.698,-1234.89 944.217,-1239.87 939.243,-1239.37 939.243,-1239.37 939.243,-1239.37 944.217,-1239.87 938.787,-1243.85 949.191,-1240.38 949.191,-1240.38"/>
<polygon fill="#6936b6" stroke="#6936b6" points="949.191,-1165.62 938.787,-1162.15 944.217,-1166.13 939.243,-1166.63 939.243,-1166.63 939.243,-1166.63 944.217,-1166.13 939.698,-1171.11 949.191,-1165.62 949.191,-1165.62"/>
<text text-anchor="middle" x="1136" y="-1199.3" font-family="Times,serif" font-size="14.00">inverse_friends</text>
</g>
<!-- User&#45;&gt;Song -->
<g id="edge32" class="edge"><title>User&#45;&gt;Song</title>
<path fill="none" stroke="#8f15f0" d="M798.773,-1004.82C798.498,-1001.86 798.239,-998.921 798,-996 793.745,-944.087 757.534,-1054.18 800,-810 813.713,-731.149 841.296,-646.77 867.805,-577.161"/>
<polygon fill="#8f15f0" stroke="#8f15f0" points="798.79,-1004.99 795.297,-1015.38 799.282,-1009.97 799.775,-1014.94 799.775,-1014.94 799.775,-1014.94 799.282,-1009.97 804.253,-1014.5 798.79,-1004.99 798.79,-1004.99"/>
<polygon fill="#8f15f0" stroke="#8f15f0" points="867.953,-576.775 875.738,-569.052 869.745,-572.107 871.537,-567.439 871.537,-567.439 871.537,-567.439 869.745,-572.107 867.336,-565.827 867.953,-576.775 867.953,-576.775"/>
</g>
<!-- User&#45;&gt;Post -->
<g id="edge30" class="edge"><title>User&#45;&gt;Post</title>
<path fill="none" stroke="#a26ce8" d="M801.735,-1006.69C801.081,-939.311 812.288,-866.614 851,-810 873.514,-777.075 909.089,-752.089 943.124,-734.093"/>
<ellipse fill="none" stroke="#a26ce8" cx="801.805" cy="-1010.88" rx="4" ry="4"/>
<polygon fill="#a26ce8" stroke="#a26ce8" points="943.304,-734.001 954.256,-733.439 947.753,-731.718 952.202,-729.435 952.202,-729.435 952.202,-729.435 947.753,-731.718 950.147,-725.432 943.304,-734.001 943.304,-734.001"/>
</g>
<!-- Song&#45;&gt;ActsAsTaggableOn::Tagging -->
<g id="edge45" class="edge"><title>Song&#45;&gt;ActsAsTaggableOn::Tagging</title>
<path fill="none" stroke="#35b0f9" d="M1033.73,-324.608C1056.86,-306.959 1082.5,-290.778 1109,-280 1191.26,-246.544 1224.55,-292.368 1308,-262 1319.7,-257.742 1320.63,-252.887 1331,-246 1390.42,-206.557 1460.82,-162.577 1502.31,-136.928"/>
<ellipse fill="none" stroke="#35b0f9" cx="1030.44" cy="-327.168" rx="4.00002" ry="4.00002"/>
<polygon fill="#35b0f9" stroke="#35b0f9" points="1502.46,-136.84 1513.33,-135.417 1506.71,-134.214 1510.96,-131.588 1510.96,-131.588 1510.96,-131.588 1506.71,-134.214 1508.6,-127.758 1502.46,-136.84 1502.46,-136.84"/>
<text text-anchor="middle" x="1354" y="-250.3" font-family="Times,serif" font-size="14.00">taggings</text>
</g>
<!-- Song&#45;&gt;ActsAsTaggableOn::Tagging -->
<g id="edge47" class="edge"><title>Song&#45;&gt;ActsAsTaggableOn::Tagging</title>
<path fill="none" stroke="#616bd6" d="M1033.54,-324.135C1056.68,-306.519 1082.38,-290.471 1109,-280 1220.1,-236.309 1267.21,-308.875 1377,-262 1381.14,-260.234 1467.9,-180.043 1512.3,-138.866"/>
<ellipse fill="none" stroke="#616bd6" cx="1030.25" cy="-326.691" rx="4.00002" ry="4.00002"/>
<polygon fill="#616bd6" stroke="#616bd6" points="1512.48,-138.697 1522.87,-135.195 1516.15,-135.297 1519.81,-131.896 1519.81,-131.896 1519.81,-131.896 1516.15,-135.297 1516.75,-128.597 1512.48,-138.697 1512.48,-138.697"/>
<text text-anchor="middle" x="1427" y="-250.3" font-family="Times,serif" font-size="14.00">tag_taggings</text>
</g>
<!-- Song&#45;&gt;ActsAsTaggableOn::Tag -->
<g id="edge46" class="edge"><title>Song&#45;&gt;ActsAsTaggableOn::Tag</title>
<path fill="none" stroke="#964f28" d="M890.511,-271.715C885.058,-262.54 878.917,-253.858 872,-246 819.08,-185.88 732.199,-150.376 672.431,-131.819"/>
<polygon fill="#964f28" stroke="#964f28" points="890.633,-271.932 891.606,-282.855 893.081,-276.291 895.53,-280.651 895.53,-280.651 895.53,-280.651 893.081,-276.291 899.453,-278.447 890.633,-271.932 890.633,-271.932"/>
<polygon fill="#964f28" stroke="#964f28" points="672.282,-131.774 664.015,-124.569 667.497,-130.325 662.711,-128.876 662.711,-128.876 662.711,-128.876 667.497,-130.325 661.407,-133.182 672.282,-131.774 672.282,-131.774"/>
<text text-anchor="middle" x="911.5" y="-250.3" font-family="Times,serif" font-size="14.00">base_tags</text>
</g>
<!-- Song&#45;&gt;ActsAsTaggableOn::Tag -->
<g id="edge48" class="edge"><title>Song&#45;&gt;ActsAsTaggableOn::Tag</title>
<path fill="none" stroke="#1b3c16" d="M830.266,-283.148C828.531,-282.058 826.776,-281.008 825,-280 760.847,-243.583 717.972,-307.619 660,-262 623.256,-233.086 611.965,-176.477 608.509,-142.568"/>
<polygon fill="#1b3c16" stroke="#1b3c16" points="830.495,-283.303 836.25,-292.637 834.634,-286.107 838.774,-288.912 838.774,-288.912 838.774,-288.912 834.634,-286.107 841.298,-285.187 830.495,-283.303 830.495,-283.303"/>
<polygon fill="#1b3c16" stroke="#1b3c16" points="608.493,-142.384 612.123,-132.037 608.067,-137.403 607.64,-132.421 607.64,-132.421 607.64,-132.421 608.067,-137.403 603.156,-132.805 608.493,-142.384 608.493,-142.384"/>
<text text-anchor="middle" x="671" y="-250.3" font-family="Times,serif" font-size="14.00">tags</text>
</g>
<!-- Post&#45;&gt;Comment -->
<g id="edge56" class="edge"><title>Post&#45;&gt;Comment</title>
<path fill="none" stroke="#a2d0a9" d="M1052.95,-619.91C1070.74,-533.816 1099.36,-388.28 1117,-262 1118.13,-253.879 1119.2,-245.493 1120.21,-237.035"/>
<ellipse fill="none" stroke="#a2d0a9" cx="1052.12" cy="-623.88" rx="4.00001" ry="4.00001"/>
<polygon fill="#a2d0a9" stroke="#a2d0a9" points="1120.21,-237.018 1125.82,-227.599 1120.78,-232.05 1121.35,-227.083 1121.35,-227.083 1121.35,-227.083 1120.78,-232.05 1116.88,-226.568 1120.21,-237.018 1120.21,-237.018"/>
<text text-anchor="middle" x="1164" y="-420.3" font-family="Times,serif" font-size="14.00">comment_threads</text>
</g>
<!-- Post&#45;&gt;Picture -->
<g id="edge49" class="edge"><title>Post&#45;&gt;Picture</title>
<path fill="none" stroke="#a8ac70" d="M1128.99,-647.087C1152.24,-633.585 1176.65,-618.143 1198,-602 1216.75,-587.824 1234.51,-570.677 1250.72,-552.704"/>
<ellipse fill="none" stroke="#a8ac70" cx="1125.28" cy="-649.22" rx="4.00002" ry="4.00002"/>
<polygon fill="#a8ac70" stroke="#a8ac70" points="1250.95,-552.447 1260.95,-547.939 1254.26,-548.702 1257.58,-544.957 1257.58,-544.957 1257.58,-544.957 1254.26,-548.702 1254.21,-541.976 1250.95,-552.447 1250.95,-552.447"/>
</g>
<!-- Post&#45;&gt;Video -->
<g id="edge51" class="edge"><title>Post&#45;&gt;Video</title>
<path fill="none" stroke="#d8439f" d="M944.81,-669.279C900.289,-654.118 847.634,-631.954 806,-602 786.818,-588.199 769.018,-570.967 753.027,-552.713"/>
<ellipse fill="none" stroke="#d8439f" cx="948.659" cy="-670.569" rx="4.00001" ry="4.00001"/>
<polygon fill="#d8439f" stroke="#d8439f" points="752.787,-552.432 749.704,-541.908 749.536,-548.633 746.285,-544.834 746.285,-544.834 746.285,-544.834 749.536,-548.633 742.866,-547.759 752.787,-552.432 752.787,-552.432"/>
</g>
<!-- Post&#45;&gt;Song -->
<g id="edge50" class="edge"><title>Post&#45;&gt;Song</title>
<path fill="none" stroke="#005ae6" d="M1008.25,-620.356C1002.92,-606.533 997.19,-591.647 991.348,-576.48"/>
<ellipse fill="none" stroke="#005ae6" cx="1009.72" cy="-624.179" rx="4.00001" ry="4.00001"/>
<polygon fill="#005ae6" stroke="#005ae6" points="991.293,-576.338 991.898,-565.389 989.496,-571.672 987.699,-567.006 987.699,-567.006 987.699,-567.006 989.496,-571.672 983.499,-568.624 991.293,-576.338 991.293,-576.338"/>
</g>
<!-- Post&#45;&gt;ActsAsTaggableOn::Tagging -->
<g id="edge52" class="edge"><title>Post&#45;&gt;ActsAsTaggableOn::Tagging</title>
<path fill="none" stroke="#c1401b" d="M1129.96,-690.435C1221.89,-680.947 1360.56,-652.472 1444,-568 1537.88,-472.963 1431.17,-369.872 1530,-280 1560.5,-252.263 1594.83,-293.856 1621,-262 1653.43,-222.525 1603.21,-168.652 1567.86,-138.291"/>
<ellipse fill="none" stroke="#c1401b" cx="1125.75" cy="-690.851" rx="4" ry="4"/>
<polygon fill="#c1401b" stroke="#c1401b" points="1567.81,-138.243 1563.03,-128.372 1563.97,-135.033 1560.14,-131.822 1560.14,-131.822 1560.14,-131.822 1563.97,-135.033 1557.25,-135.272 1567.81,-138.243 1567.81,-138.243"/>
<text text-anchor="middle" x="1553" y="-420.3" font-family="Times,serif" font-size="14.00">taggings</text>
</g>
<!-- Post&#45;&gt;ActsAsTaggableOn::Tagging -->
<g id="edge54" class="edge"><title>Post&#45;&gt;ActsAsTaggableOn::Tagging</title>
<path fill="none" stroke="#d8343d" d="M1129.75,-685.804C1267.77,-670.112 1517.3,-633.346 1576,-568 1662.2,-472.037 1544.18,-389.731 1612,-280 1619.58,-267.732 1632.19,-274.716 1639,-262 1642.36,-255.73 1641.29,-252.731 1639,-246 1624.31,-202.889 1589.06,-162.917 1564.36,-138.74"/>
<ellipse fill="none" stroke="#d8343d" cx="1125.61" cy="-686.27" rx="4.00001" ry="4.00001"/>
<polygon fill="#d8343d" stroke="#d8343d" points="1564.29,-138.674 1560.18,-128.508 1560.68,-135.216 1557.07,-131.758 1557.07,-131.758 1557.07,-131.758 1560.68,-135.216 1553.96,-135.008 1564.29,-138.674 1564.29,-138.674"/>
<text text-anchor="middle" x="1647" y="-420.3" font-family="Times,serif" font-size="14.00">tag_taggings</text>
</g>
<!-- Post&#45;&gt;ActsAsTaggableOn::Tag -->
<g id="edge53" class="edge"><title>Post&#45;&gt;ActsAsTaggableOn::Tag</title>
<path fill="none" stroke="#3f86da" d="M942.445,-669.326C855.002,-646.03 721.241,-611.523 604,-586 563.715,-577.23 539.689,-599.424 513,-568 420.314,-458.868 455.859,-381.197 503,-246 518.076,-202.763 554.039,-163.087 579.437,-138.991"/>
<polygon fill="#3f86da" stroke="#3f86da" points="942.683,-669.39 951.185,-676.316 947.514,-670.679 952.345,-671.969 952.345,-671.969 952.345,-671.969 947.514,-670.679 953.506,-667.621 942.683,-669.39 942.683,-669.39"/>
<polygon fill="#3f86da" stroke="#3f86da" points="579.614,-138.827 590.005,-135.325 583.279,-135.427 586.945,-132.026 586.945,-132.026 586.945,-132.026 583.279,-135.427 583.885,-128.727 579.614,-138.827 579.614,-138.827"/>
<text text-anchor="middle" x="539.5" y="-420.3" font-family="Times,serif" font-size="14.00">base_tags</text>
</g>
<!-- Post&#45;&gt;ActsAsTaggableOn::Tag -->
<g id="edge55" class="edge"><title>Post&#45;&gt;ActsAsTaggableOn::Tag</title>
<path fill="none" stroke="#06a0aa" d="M942.841,-665.992C894.684,-646.188 839.684,-614.874 808,-568 735.761,-461.128 862.609,-371.815 772,-280 731.029,-238.483 685.179,-301.215 642,-262 608.674,-231.734 604.3,-175.993 605.038,-142.528"/>
<polygon fill="#06a0aa" stroke="#06a0aa" points="943.086,-666.09 950.702,-673.98 947.729,-667.946 952.372,-669.801 952.372,-669.801 952.372,-669.801 947.729,-667.946 954.042,-665.622 943.086,-666.09 943.086,-666.09"/>
<polygon fill="#06a0aa" stroke="#06a0aa" points="605.055,-142.095 609.946,-132.28 605.252,-137.099 605.449,-132.103 605.449,-132.103 605.449,-132.103 605.252,-137.099 600.953,-131.925 605.055,-142.095 605.055,-142.095"/>
<text text-anchor="middle" x="819" y="-420.3" font-family="Times,serif" font-size="14.00">tags</text>
</g>
</g>
</svg>
