<?xml version="1.0" encoding="UTF-8" standalone="no"?>
<!DOCTYPE svg PUBLIC "-//W3C//DTD SVG 1.1//EN"
 "http://www.w3.org/Graphics/SVG/1.1/DTD/svg11.dtd">
<!-- Generated by graphviz version 2.36.0 (20140111.2315)
 -->
<!-- Title: models_diagram Pages: 1 -->
<svg width="1582pt" height="498pt"
 viewBox="0.00 0.00 1582.00 498.00" xmlns="http://www.w3.org/2000/svg" xmlns:xlink="http://www.w3.org/1999/xlink">
<g id="graph0" class="graph" transform="scale(1 1) rotate(0) translate(4 494)">
<title>models_diagram</title>
<polygon fill="none" stroke="none" points="-4,4 -4,-494 1578,-494 1578,4 -4,4"/>
<!-- _diagram_info -->
<g id="node1" class="node"><title>_diagram_info</title>
<text text-anchor="start" x="8" y="-475.6" font-family="Times,serif" font-size="13.00">Models diagram</text>
<text text-anchor="start" x="8" y="-461.6" font-family="Times,serif" font-size="13.00">Date: May 08 2016 &#45; 22:43</text>
<text text-anchor="start" x="8" y="-447.6" font-family="Times,serif" font-size="13.00">Migration version: 20160430104852</text>
<text text-anchor="start" x="8" y="-433.6" font-family="Times,serif" font-size="13.00">Generated by RailRoady 1.4.2</text>
<text text-anchor="start" x="8" y="-419.6" font-family="Times,serif" font-size="13.00">http://railroady.prestonlee.com</text>
</g>
<!-- Mention -->
<g id="node2" class="node"><title>Mention</title>
<ellipse fill="none" stroke="black" cx="273" cy="-451" rx="40.4202" ry="18"/>
<text text-anchor="middle" x="273" y="-447.3" font-family="Times,serif" font-size="14.00">Mention</text>
</g>
<!-- Lot -->
<g id="node3" class="node"><title>Lot</title>
<ellipse fill="none" stroke="black" cx="1338" cy="-356" rx="27" ry="18"/>
<text text-anchor="middle" x="1338" y="-352.3" font-family="Times,serif" font-size="14.00">Lot</text>
</g>
<!-- Bid -->
<g id="node4" class="node"><title>Bid</title>
<ellipse fill="none" stroke="black" cx="1297" cy="-268" rx="27" ry="18"/>
<text text-anchor="middle" x="1297" y="-264.3" font-family="Times,serif" font-size="14.00">Bid</text>
</g>
<!-- Lot&#45;&gt;Bid -->
<g id="edge1" class="edge"><title>Lot&#45;&gt;Bid</title>
<path fill="none" stroke="#778d8f" d="M1326.47,-330.806C1321.08,-319.514 1314.67,-306.066 1309.21,-294.603"/>
<ellipse fill="none" stroke="#778d8f" cx="1328.37" cy="-334.808" rx="4.00002" ry="4.00002"/>
<polygon fill="#778d8f" stroke="#778d8f" points="1309.18,-294.557 1308.94,-283.594 1307.03,-290.044 1304.88,-285.531 1304.88,-285.531 1304.88,-285.531 1307.03,-290.044 1300.82,-287.467 1309.18,-294.557 1309.18,-294.557"/>
</g>
<!-- Picture -->
<g id="node16" class="node"><title>Picture</title>
<ellipse fill="none" stroke="black" cx="1068" cy="-106" rx="35.6194" ry="18"/>
<text text-anchor="middle" x="1068" y="-102.3" font-family="Times,serif" font-size="14.00">Picture</text>
</g>
<!-- Lot&#45;&gt;Picture -->
<g id="edge2" class="edge"><title>Lot&#45;&gt;Picture</title>
<path fill="none" stroke="#fd85bb" d="M1343.36,-329.732C1346.73,-307.076 1348,-273.83 1333,-250 1282.62,-169.951 1171.08,-131.623 1110,-116.028"/>
<ellipse fill="none" stroke="#fd85bb" cx="1342.66" cy="-333.91" rx="4.00001" ry="4.00001"/>
<polygon fill="#fd85bb" stroke="#fd85bb" points="1110,-116.027 1101.37,-109.263 1105.14,-114.829 1100.29,-113.632 1100.29,-113.632 1100.29,-113.632 1105.14,-114.829 1099.21,-118.001 1110,-116.027 1110,-116.027"/>
</g>
<!-- Community -->
<g id="node5" class="node"><title>Community</title>
<ellipse fill="none" stroke="black" cx="1010" cy="-268" rx="53.4184" ry="18"/>
<text text-anchor="middle" x="1010" y="-264.3" font-family="Times,serif" font-size="14.00">Community</text>
</g>
<!-- Community&#45;&gt;Picture -->
<g id="edge9" class="edge"><title>Community&#45;&gt;Picture</title>
<path fill="none" stroke="#a95c92" d="M1019.03,-242.077C1029.73,-212.565 1047.48,-163.62 1058.41,-133.455"/>
<ellipse fill="none" stroke="#a95c92" cx="1017.57" cy="-246.117" rx="4.00001" ry="4.00001"/>
<polygon fill="#a95c92" stroke="#a95c92" points="1058.43,-133.401 1066.07,-125.533 1060.13,-128.7 1061.84,-124 1061.84,-124 1061.84,-124 1060.13,-128.7 1057.61,-122.466 1058.43,-133.401 1058.43,-133.401"/>
</g>
<!-- User -->
<g id="node18" class="node"><title>User</title>
<ellipse fill="none" stroke="black" cx="634" cy="-356" rx="26.949" ry="18"/>
<text text-anchor="middle" x="634" y="-352.3" font-family="Times,serif" font-size="14.00">User</text>
</g>
<!-- Community&#45;&gt;User -->
<g id="edge7" class="edge"><title>Community&#45;&gt;User</title>
<path fill="none" stroke="#d9a50e" d="M1045.91,-289.34C1057.99,-298.679 1066.3,-309.9 1057,-320 1031.15,-348.082 770.041,-353.634 671.434,-354.731"/>
<polygon fill="#d9a50e" stroke="#d9a50e" points="1045.77,-289.241 1040.16,-279.819 1041.68,-286.373 1037.58,-283.505 1037.58,-283.505 1037.58,-283.505 1041.68,-286.373 1035,-287.192 1045.77,-289.241 1045.77,-289.241"/>
<polygon fill="#d9a50e" stroke="#d9a50e" points="671.321,-354.732 661.276,-350.334 666.321,-354.783 661.322,-354.834 661.322,-354.834 661.322,-354.834 666.321,-354.783 661.367,-359.333 671.321,-354.732 671.321,-354.732"/>
</g>
<!-- Post -->
<g id="node20" class="node"><title>Post</title>
<ellipse fill="none" stroke="black" cx="798" cy="-194" rx="27" ry="18"/>
<text text-anchor="middle" x="798" y="-190.3" font-family="Times,serif" font-size="14.00">Post</text>
</g>
<!-- Community&#45;&gt;Post -->
<g id="edge8" class="edge"><title>Community&#45;&gt;Post</title>
<path fill="none" stroke="#92175b" d="M965.894,-252.021C925.76,-238.39 867.404,-218.571 831.124,-206.25"/>
<ellipse fill="none" stroke="#92175b" cx="969.768" cy="-253.336" rx="4.00001" ry="4.00001"/>
<polygon fill="#92175b" stroke="#92175b" points="830.979,-206.201 822.958,-198.724 826.245,-204.593 821.51,-202.985 821.51,-202.985 821.51,-202.985 826.245,-204.593 820.063,-207.246 830.979,-206.201 830.979,-206.201"/>
</g>
<!-- ActsAsTaggableOn::Tagging -->
<g id="node21" class="node"><title>ActsAsTaggableOn::Tagging</title>
<ellipse fill="none" stroke="black" cx="1323" cy="-18" rx="114.085" ry="18"/>
<text text-anchor="middle" x="1323" y="-14.3" font-family="Times,serif" font-size="14.00">ActsAsTaggableOn::Tagging</text>
</g>
<!-- Community&#45;&gt;ActsAsTaggableOn::Tagging -->
<g id="edge3" class="edge"><title>Community&#45;&gt;ActsAsTaggableOn::Tagging</title>
<path fill="none" stroke="#ab22e5" d="M1065.44,-257.963C1176.27,-238.644 1418.73,-189.681 1467,-124 1487.6,-95.9716 1461.82,-71.9073 1432,-54 1420.28,-46.9601 1406.98,-41.1762 1393.81,-36.4817"/>
<ellipse fill="none" stroke="#ab22e5" cx="1061.31" cy="-258.676" rx="4.00001" ry="4.00001"/>
<polygon fill="#ab22e5" stroke="#ab22e5" points="1393.73,-36.4565 1385.7,-28.9906 1389,-34.855 1384.26,-33.2535 1384.26,-33.2535 1384.26,-33.2535 1389,-34.855 1382.82,-37.5164 1393.73,-36.4565 1393.73,-36.4565"/>
<text text-anchor="middle" x="1469" y="-146.3" font-family="Times,serif" font-size="14.00">taggings</text>
</g>
<!-- Community&#45;&gt;ActsAsTaggableOn::Tagging -->
<g id="edge5" class="edge"><title>Community&#45;&gt;ActsAsTaggableOn::Tagging</title>
<path fill="none" stroke="#ef3967" d="M1070.34,-263.2C1189.41,-254.246 1447.31,-227.123 1496,-158 1524.43,-117.642 1498.36,-80.9529 1457,-54 1443.57,-45.2484 1428.05,-38.6813 1412.44,-33.7545"/>
<ellipse fill="none" stroke="#ef3967" cx="1066" cy="-263.52" rx="4" ry="4"/>
<polygon fill="#ef3967" stroke="#ef3967" points="1412.31,-33.7184 1403.99,-26.5772 1407.52,-32.3062 1402.72,-30.894 1402.72,-30.894 1402.72,-30.894 1407.52,-32.3062 1401.45,-35.2108 1412.31,-33.7184 1412.31,-33.7184"/>
<text text-anchor="middle" x="1539" y="-146.3" font-family="Times,serif" font-size="14.00">tag_taggings</text>
</g>
<!-- ActsAsTaggableOn::Tag -->
<g id="node22" class="node"><title>ActsAsTaggableOn::Tag</title>
<ellipse fill="none" stroke="black" cx="392" cy="-18" rx="98.1881" ry="18"/>
<text text-anchor="middle" x="392" y="-14.3" font-family="Times,serif" font-size="14.00">ActsAsTaggableOn::Tag</text>
</g>
<!-- Community&#45;&gt;ActsAsTaggableOn::Tag -->
<g id="edge4" class="edge"><title>Community&#45;&gt;ActsAsTaggableOn::Tag</title>
<path fill="none" stroke="#2e1ac3" d="M955.773,-255.914C943.706,-253.714 930.948,-251.595 919,-250 815.136,-236.138 543.842,-256.552 449,-212 414.152,-195.63 359.218,-110.533 328,-88 313.172,-77.2971 300.699,-85.5035 291,-70 280.611,-53.3922 293.643,-41.9843 313.426,-34.2453"/>
<polygon fill="#2e1ac3" stroke="#2e1ac3" points="955.885,-255.935 964.889,-262.194 960.8,-256.853 965.715,-257.771 965.715,-257.771 965.715,-257.771 960.8,-256.853 966.541,-253.347 955.885,-255.935 955.885,-255.935"/>
<polygon fill="#2e1ac3" stroke="#2e1ac3" points="313.484,-34.225 324.407,-35.1928 318.207,-32.5836 322.93,-30.9422 322.93,-30.9422 322.93,-30.9422 318.207,-32.5836 321.453,-26.6916 313.484,-34.225 313.484,-34.225"/>
<text text-anchor="middle" x="418.5" y="-146.3" font-family="Times,serif" font-size="14.00">base_tags</text>
</g>
<!-- Community&#45;&gt;ActsAsTaggableOn::Tag -->
<g id="edge6" class="edge"><title>Community&#45;&gt;ActsAsTaggableOn::Tag</title>
<path fill="none" stroke="#7d96b3" d="M956.191,-255.654C944.01,-253.447 931.1,-251.39 919,-250 805.435,-236.953 509.51,-260.509 406,-212 325.91,-174.467 233.082,-125.608 285,-54 291.129,-45.5462 299.361,-39.0965 308.549,-34.1827"/>
<polygon fill="#7d96b3" stroke="#7d96b3" points="956.388,-255.691 965.389,-261.955 961.303,-256.611 966.218,-257.532 966.218,-257.532 966.218,-257.532 961.303,-256.611 967.046,-253.109 956.388,-255.691 956.388,-255.691"/>
<polygon fill="#7d96b3" stroke="#7d96b3" points="308.563,-34.1762 319.528,-34.0003 313.089,-32.0515 317.615,-29.9268 317.615,-29.9268 317.615,-29.9268 313.089,-32.0515 315.703,-25.8533 308.563,-34.1762 308.563,-34.1762"/>
<text text-anchor="middle" x="321" y="-146.3" font-family="Times,serif" font-size="14.00">tags</text>
</g>
<!-- Like -->
<g id="node6" class="node"><title>Like</title>
<ellipse fill="none" stroke="black" cx="1426" cy="-451" rx="27" ry="18"/>
<text text-anchor="middle" x="1426" y="-447.3" font-family="Times,serif" font-size="14.00">Like</text>
</g>
<!-- Comment -->
<g id="node7" class="node"><title>Comment</title>
<ellipse fill="none" stroke="black" cx="916" cy="-18" rx="46.2191" ry="18"/>
<text text-anchor="middle" x="916" y="-14.3" font-family="Times,serif" font-size="14.00">Comment</text>
</g>
<!-- Comment&#45;&gt;Comment -->
<g id="edge10" class="edge"><title>Comment&#45;&gt;Comment</title>
<path fill="none" stroke="#6974cf" d="M965.4,-25.7313C974.012,-24.6981 980,-22.121 980,-18 980,-14.2537 975.051,-11.7832 967.681,-10.5887"/>
<ellipse fill="none" stroke="#6974cf" cx="961.234" cy="-25.992" rx="4" ry="4"/>
<polygon fill="#6974cf" stroke="#6974cf" points="967.21,-10.5513 957.599,-5.27224 962.226,-10.1547 957.242,-9.75806 957.242,-9.75806 957.242,-9.75806 962.226,-10.1547 956.885,-14.2439 967.21,-10.5513 967.21,-10.5513"/>
<text text-anchor="middle" x="1002.5" y="-14.3" font-family="Times,serif" font-size="14.00">children</text>
</g>
<!-- UsersRole -->
<g id="node8" class="node"><title>UsersRole</title>
<ellipse fill="none" stroke="black" cx="419" cy="-268" rx="47.169" ry="18"/>
<text text-anchor="middle" x="419" y="-264.3" font-family="Times,serif" font-size="14.00">UsersRole</text>
</g>
<!-- Role -->
<g id="node9" class="node"><title>Role</title>
<ellipse fill="none" stroke="black" cx="359" cy="-451" rx="26.949" ry="18"/>
<text text-anchor="middle" x="359" y="-447.3" font-family="Times,serif" font-size="14.00">Role</text>
</g>
<!-- Role&#45;&gt;UsersRole -->
<g id="edge11" class="edge"><title>Role&#45;&gt;UsersRole</title>
<path fill="none" stroke="#0f36a5" d="M339.26,-428.66C331.761,-417.977 325.903,-404.652 330,-392 342.768,-352.574 373.423,-315.181 395.179,-292.195"/>
<ellipse fill="none" stroke="#0f36a5" cx="341.899" cy="-432.094" rx="4.00002" ry="4.00002"/>
<polygon fill="#0f36a5" stroke="#0f36a5" points="395.219,-292.153 405.409,-288.1 398.698,-288.561 402.176,-284.97 402.176,-284.97 402.176,-284.97 398.698,-288.561 398.944,-281.839 395.219,-292.153 395.219,-292.153"/>
</g>
<!-- Role&#45;&gt;User -->
<g id="edge12" class="edge"><title>Role&#45;&gt;User</title>
<path fill="none" stroke="#c2efe9" d="M389.664,-435.467C406.155,-427.943 426.962,-418.911 446,-412 498.448,-392.961 560.892,-375.735 598.974,-365.818"/>
<polygon fill="#c2efe9" stroke="#c2efe9" points="389.579,-435.506 378.614,-435.61 385.039,-437.601 380.499,-439.696 380.499,-439.696 380.499,-439.696 385.039,-437.601 382.384,-443.782 389.579,-435.506 389.579,-435.506"/>
<polygon fill="#c2efe9" stroke="#c2efe9" points="599.358,-365.719 610.166,-367.576 604.2,-364.469 609.041,-363.219 609.041,-363.219 609.041,-363.219 604.2,-364.469 607.916,-358.862 599.358,-365.719 599.358,-365.719"/>
</g>
<!-- Message -->
<g id="node10" class="node"><title>Message</title>
<ellipse fill="none" stroke="black" cx="500" cy="-194" rx="42.3701" ry="18"/>
<text text-anchor="middle" x="500" y="-190.3" font-family="Times,serif" font-size="14.00">Message</text>
</g>
<!-- Message&#45;&gt;Picture -->
<g id="edge13" class="edge"><title>Message&#45;&gt;Picture</title>
<path fill="none" stroke="#3896ca" d="M549.552,-189.636C642.44,-182.619 848.651,-163.666 1018,-124 1022.17,-123.024 1026.48,-121.838 1030.74,-120.552"/>
<ellipse fill="none" stroke="#3896ca" cx="545.445" cy="-189.942" rx="4" ry="4"/>
<polygon fill="#3896ca" stroke="#3896ca" points="1030.99,-120.473 1041.88,-121.705 1035.75,-118.947 1040.51,-117.42 1040.51,-117.42 1040.51,-117.42 1035.75,-118.947 1039.14,-113.135 1030.99,-120.473 1030.99,-120.473"/>
</g>
<!-- Video -->
<g id="node17" class="node"><title>Video</title>
<ellipse fill="none" stroke="black" cx="462" cy="-106" rx="32.2457" ry="18"/>
<text text-anchor="middle" x="462" y="-102.3" font-family="Times,serif" font-size="14.00">Video</text>
</g>
<!-- Message&#45;&gt;Video -->
<g id="edge15" class="edge"><title>Message&#45;&gt;Video</title>
<path fill="none" stroke="#0cc900" d="M489.149,-168.442C484.248,-157.35 478.454,-144.237 473.48,-132.98"/>
<ellipse fill="none" stroke="#0cc900" cx="490.876" cy="-172.35" rx="4.00002" ry="4.00002"/>
<polygon fill="#0cc900" stroke="#0cc900" points="473.404,-132.81 473.479,-121.844 471.384,-128.236 469.363,-123.663 469.363,-123.663 469.363,-123.663 471.384,-128.236 465.247,-125.482 473.404,-132.81 473.404,-132.81"/>
</g>
<!-- Song -->
<g id="node19" class="node"><title>Song</title>
<ellipse fill="none" stroke="black" cx="679" cy="-106" rx="28.3955" ry="18"/>
<text text-anchor="middle" x="679" y="-102.3" font-family="Times,serif" font-size="14.00">Song</text>
</g>
<!-- Message&#45;&gt;Song -->
<g id="edge14" class="edge"><title>Message&#45;&gt;Song</title>
<path fill="none" stroke="#822984" d="M519.984,-170.565C529.938,-160.574 542.679,-149.415 556,-142 563.757,-137.682 609.839,-125.096 643.326,-116.26"/>
<ellipse fill="none" stroke="#822984" cx="516.944" cy="-173.713" rx="4.00002" ry="4.00002"/>
<polygon fill="#822984" stroke="#822984" points="643.586,-116.192 654.401,-118.003 648.422,-114.921 653.258,-113.651 653.258,-113.651 653.258,-113.651 648.422,-114.921 652.115,-109.299 643.586,-116.192 643.586,-116.192"/>
</g>
<!-- Friendship -->
<g id="node11" class="node"><title>Friendship</title>
<ellipse fill="none" stroke="black" cx="719" cy="-268" rx="48.1437" ry="18"/>
<text text-anchor="middle" x="719" y="-264.3" font-family="Times,serif" font-size="14.00">Friendship</text>
</g>
<!-- Category -->
<g id="node12" class="node"><title>Category</title>
<ellipse fill="none" stroke="black" cx="1338" cy="-451" rx="42.3456" ry="18"/>
<text text-anchor="middle" x="1338" y="-447.3" font-family="Times,serif" font-size="14.00">Category</text>
</g>
<!-- Category&#45;&gt;Lot -->
<g id="edge16" class="edge"><title>Category&#45;&gt;Lot</title>
<path fill="none" stroke="#b3d120" d="M1338,-424.562C1338,-412.078 1338,-397.025 1338,-384.299"/>
<ellipse fill="none" stroke="#b3d120" cx="1338" cy="-428.942" rx="4" ry="4"/>
<polygon fill="#b3d120" stroke="#b3d120" points="1338,-384.264 1342.5,-374.264 1338,-379.264 1338,-374.264 1338,-374.264 1338,-374.264 1338,-379.264 1333.5,-374.264 1338,-384.264 1338,-384.264"/>
</g>
<!-- Dialogue -->
<g id="node13" class="node"><title>Dialogue</title>
<ellipse fill="none" stroke="black" cx="498" cy="-451" rx="42.3456" ry="18"/>
<text text-anchor="middle" x="498" y="-447.3" font-family="Times,serif" font-size="14.00">Dialogue</text>
</g>
<!-- Dialogue&#45;&gt;Message -->
<g id="edge18" class="edge"><title>Dialogue&#45;&gt;Message</title>
<path fill="none" stroke="#900f1a" d="M468.365,-431.18C416.294,-395.721 317.976,-316.592 363,-250 382.217,-221.577 418.798,-207.84 449.328,-201.203"/>
<ellipse fill="none" stroke="#900f1a" cx="471.761" cy="-433.458" rx="4.00002" ry="4.00002"/>
<polygon fill="#900f1a" stroke="#900f1a" points="449.605,-201.148 460.287,-203.628 454.511,-200.181 459.416,-199.213 459.416,-199.213 459.416,-199.213 454.511,-200.181 458.545,-194.798 449.605,-201.148 449.605,-201.148"/>
</g>
<!-- Dialogue&#45;&gt;User -->
<g id="edge17" class="edge"><title>Dialogue&#45;&gt;User</title>
<path fill="none" stroke="#f0755a" d="M528.147,-429.385C551.777,-413.226 584.356,-390.948 607.107,-375.39"/>
<polygon fill="#f0755a" stroke="#f0755a" points="527.804,-429.619 517.009,-431.549 523.677,-432.442 519.55,-435.264 519.55,-435.264 519.55,-435.264 523.677,-432.442 522.09,-438.978 527.804,-429.619 527.804,-429.619"/>
<polygon fill="#f0755a" stroke="#f0755a" points="607.35,-375.224 618.144,-373.294 611.477,-372.402 615.604,-369.579 615.604,-369.579 615.604,-369.579 611.477,-372.402 613.064,-365.865 607.35,-375.224 607.35,-375.224"/>
</g>
<!-- Ability -->
<g id="node14" class="node"><title>Ability</title>
<polygon fill="none" stroke="black" points="1526.25,-469 1471.75,-469 1471.75,-433 1526.25,-433 1526.25,-469"/>
<text text-anchor="middle" x="1499" y="-447.3" font-family="Times,serif" font-size="14.00">Ability</text>
</g>
<!-- Subscription -->
<g id="node15" class="node"><title>Subscription</title>
<ellipse fill="none" stroke="black" cx="855" cy="-268" rx="55.3682" ry="18"/>
<text text-anchor="middle" x="855" y="-264.3" font-family="Times,serif" font-size="14.00">Subscription</text>
</g>
<!-- Picture&#45;&gt;Comment -->
<g id="edge23" class="edge"><title>Picture&#45;&gt;Comment</title>
<path fill="none" stroke="#64ea8b" d="M1034.23,-90.1927C1021.68,-84.3323 1007.47,-77.2643 995,-70 984.24,-63.7325 982.394,-60.8575 972,-54 964.421,-48.9998 956.172,-43.7438 948.393,-38.8687"/>
<ellipse fill="none" stroke="#64ea8b" cx="1038.17" cy="-92.004" rx="4.00002" ry="4.00002"/>
<polygon fill="#64ea8b" stroke="#64ea8b" points="948.359,-38.8473 942.249,-29.7407 944.114,-36.2038 939.87,-33.5604 939.87,-33.5604 939.87,-33.5604 944.114,-36.2038 937.491,-37.3801 948.359,-38.8473 948.359,-38.8473"/>
<text text-anchor="middle" x="1044" y="-58.3" font-family="Times,serif" font-size="14.00">comment_threads</text>
</g>
<!-- Picture&#45;&gt;ActsAsTaggableOn::Tagging -->
<g id="edge19" class="edge"><title>Picture&#45;&gt;ActsAsTaggableOn::Tagging</title>
<path fill="none" stroke="#e03213" d="M1109.97,-99.4577C1135.67,-96.0881 1169.23,-91.7302 1199,-88 1232.09,-83.8539 1325.88,-94.9575 1348,-70 1354.64,-62.507 1352.08,-52.9338 1346.57,-44.1098"/>
<ellipse fill="none" stroke="#e03213" cx="1105.88" cy="-99.9942" rx="4.00001" ry="4.00001"/>
<polygon fill="#e03213" stroke="#e03213" points="1346.51,-44.0301 1344.22,-33.307 1343.55,-40.0008 1340.59,-35.9715 1340.59,-35.9715 1340.59,-35.9715 1343.55,-40.0008 1336.97,-38.636 1346.51,-44.0301 1346.51,-44.0301"/>
<text text-anchor="middle" x="1374" y="-58.3" font-family="Times,serif" font-size="14.00">taggings</text>
</g>
<!-- Picture&#45;&gt;ActsAsTaggableOn::Tagging -->
<g id="edge21" class="edge"><title>Picture&#45;&gt;ActsAsTaggableOn::Tagging</title>
<path fill="none" stroke="#0db60f" d="M1110.28,-99.6378C1157.3,-93.229 1229.94,-81.8733 1255,-70 1264.98,-65.2732 1265.28,-60.7693 1274,-54 1279.2,-49.9615 1284.81,-45.7911 1290.31,-41.7982"/>
<ellipse fill="none" stroke="#0db60f" cx="1106.07" cy="-100.204" rx="4.00001" ry="4.00001"/>
<polygon fill="#0db60f" stroke="#0db60f" points="1290.67,-41.5431 1301.42,-39.3708 1294.73,-38.6287 1298.79,-35.7143 1298.79,-35.7143 1298.79,-35.7143 1294.73,-38.6287 1296.17,-32.0578 1290.67,-41.5431 1290.67,-41.5431"/>
<text text-anchor="middle" x="1309" y="-58.3" font-family="Times,serif" font-size="14.00">tag_taggings</text>
</g>
<!-- Picture&#45;&gt;ActsAsTaggableOn::Tag -->
<g id="edge20" class="edge"><title>Picture&#45;&gt;ActsAsTaggableOn::Tag</title>
<path fill="none" stroke="#441183" d="M1030.75,-91.4141C1026.48,-90.1343 1022.17,-88.9594 1018,-88 955.143,-73.5443 936.9,-84.2675 874,-70 852.07,-65.0256 848.034,-58.492 826,-54 716.346,-31.6452 588.375,-23.4409 499.944,-20.4967"/>
<polygon fill="#441183" stroke="#441183" points="1031,-91.4929 1039.15,-98.8251 1035.76,-93.0159 1040.52,-94.539 1040.52,-94.539 1040.52,-94.539 1035.76,-93.0159 1041.89,-90.2528 1031,-91.4929 1031,-91.4929"/>
<polygon fill="#441183" stroke="#441183" points="499.895,-20.4952 490.042,-15.6815 494.897,-20.3372 489.9,-20.1793 489.9,-20.1793 489.9,-20.1793 494.897,-20.3372 489.757,-24.677 499.895,-20.4952 499.895,-20.4952"/>
<text text-anchor="middle" x="900.5" y="-58.3" font-family="Times,serif" font-size="14.00">base_tags</text>
</g>
<!-- Picture&#45;&gt;ActsAsTaggableOn::Tag -->
<g id="edge22" class="edge"><title>Picture&#45;&gt;ActsAsTaggableOn::Tag</title>
<path fill="none" stroke="#2e766a" d="M1030.31,-91.8158C1026.17,-90.4784 1022.01,-89.18 1018,-88 986.358,-78.6831 975.372,-85.01 946,-70 936.169,-64.9763 937.242,-58.1216 927,-54 852.31,-23.9416 634.26,-18.5249 500.708,-18.1723"/>
<polygon fill="#2e766a" stroke="#2e766a" points="1030.34,-91.8264 1038.42,-99.2415 1035.09,-93.398 1039.84,-94.9695 1039.84,-94.9695 1039.84,-94.9695 1035.09,-93.398 1041.25,-90.6976 1030.34,-91.8264 1030.34,-91.8264"/>
<polygon fill="#2e766a" stroke="#2e766a" points="500.447,-18.172 490.454,-13.6548 495.447,-18.1634 490.447,-18.1548 490.447,-18.1548 490.447,-18.1548 495.447,-18.1634 490.439,-22.6547 500.447,-18.172 500.447,-18.172"/>
<text text-anchor="middle" x="957" y="-58.3" font-family="Times,serif" font-size="14.00">tags</text>
</g>
<!-- Video&#45;&gt;Comment -->
<g id="edge29" class="edge"><title>Video&#45;&gt;Comment</title>
<path fill="none" stroke="#2ecf30" d="M469.782,-80.1803C474.142,-70.3996 480.638,-60.0714 490,-54 520.346,-34.3197 751.544,-24.3157 860.069,-20.664"/>
<ellipse fill="none" stroke="#2ecf30" cx="468.214" cy="-84.1009" rx="4.00001" ry="4.00001"/>
<polygon fill="#2ecf30" stroke="#2ecf30" points="860.183,-20.6603 870.327,-24.8278 865.181,-20.4953 870.178,-20.3303 870.178,-20.3303 870.178,-20.3303 865.181,-20.4953 870.03,-15.8327 860.183,-20.6603 860.183,-20.6603"/>
<text text-anchor="middle" x="539" y="-58.3" font-family="Times,serif" font-size="14.00">comment_threads</text>
</g>
<!-- Video&#45;&gt;User -->
<g id="edge24" class="edge"><title>Video&#45;&gt;User</title>
<path fill="none" stroke="#2829d8" d="M452.134,-133.435C445.575,-155.135 439.715,-186.355 449,-212 454.318,-226.688 526.237,-310.994 539,-320 556.895,-332.628 579.876,-341.255 598.753,-346.784"/>
<polygon fill="#2829d8" stroke="#2829d8" points="452.143,-133.407 459.524,-125.297 453.694,-128.654 455.246,-123.901 455.246,-123.901 455.246,-123.901 453.694,-128.654 450.968,-122.504 452.143,-133.407 452.143,-133.407"/>
<polygon fill="#2829d8" stroke="#2829d8" points="598.841,-346.808 607.282,-353.808 603.66,-348.139 608.48,-349.47 608.48,-349.47 608.48,-349.47 603.66,-348.139 609.678,-345.132 598.841,-346.808 598.841,-346.808"/>
</g>
<!-- Video&#45;&gt;ActsAsTaggableOn::Tagging -->
<g id="edge25" class="edge"><title>Video&#45;&gt;ActsAsTaggableOn::Tagging</title>
<path fill="none" stroke="#3fbbcb" d="M500.7,-98.7162C526.486,-93.4768 560.549,-84.481 588,-70 597.764,-64.8491 596.711,-58.0026 607,-54 651.256,-36.7834 986.574,-38.3943 1034,-36 1091.65,-33.0895 1155.74,-29.369 1208.89,-26.151"/>
<ellipse fill="none" stroke="#3fbbcb" cx="496.564" cy="-99.5223" rx="4.00001" ry="4.00001"/>
<polygon fill="#3fbbcb" stroke="#3fbbcb" points="1209.04,-26.1417 1219.29,-30.0271 1214.03,-25.8386 1219.02,-25.5354 1219.02,-25.5354 1219.02,-25.5354 1214.03,-25.8386 1218.75,-21.0437 1209.04,-26.1417 1209.04,-26.1417"/>
<text text-anchor="middle" x="630" y="-58.3" font-family="Times,serif" font-size="14.00">taggings</text>
</g>
<!-- Video&#45;&gt;ActsAsTaggableOn::Tagging -->
<g id="edge27" class="edge"><title>Video&#45;&gt;ActsAsTaggableOn::Tagging</title>
<path fill="none" stroke="#96b074" d="M500.097,-97.9736C518.721,-94.6793 541.489,-90.8596 562,-88 635.062,-77.8138 657.43,-94.5304 727,-70 739.441,-65.6133 739.458,-58.0904 752,-54 754.684,-53.1245 1041.97,-35.8149 1207.96,-25.873"/>
<ellipse fill="none" stroke="#96b074" cx="496.059" cy="-98.694" rx="4.00001" ry="4.00001"/>
<polygon fill="#96b074" stroke="#96b074" points="1208.24,-25.8562 1218.49,-29.7504 1213.23,-25.5573 1218.22,-25.2584 1218.22,-25.2584 1218.22,-25.2584 1213.23,-25.5573 1217.95,-20.7665 1208.24,-25.8562 1208.24,-25.8562"/>
<text text-anchor="middle" x="787" y="-58.3" font-family="Times,serif" font-size="14.00">tag_taggings</text>
</g>
<!-- Video&#45;&gt;ActsAsTaggableOn::Tag -->
<g id="edge26" class="edge"><title>Video&#45;&gt;ActsAsTaggableOn::Tag</title>
<path fill="none" stroke="#a55919" d="M421.147,-98.9421C375.425,-91.7474 306.695,-79.5229 299,-70 286.751,-54.8413 300.526,-43.4996 320.9,-35.4098"/>
<polygon fill="#a55919" stroke="#a55919" points="421.208,-98.9515 430.399,-104.932 426.148,-99.7182 431.089,-100.485 431.089,-100.485 431.089,-100.485 426.148,-99.7182 431.779,-96.0381 421.208,-98.9515 421.208,-98.9515"/>
<polygon fill="#a55919" stroke="#a55919" points="320.904,-35.4085 331.837,-36.2655 325.61,-33.7193 330.316,-32.0301 330.316,-32.0301 330.316,-32.0301 325.61,-33.7193 328.796,-27.7947 320.904,-35.4085 320.904,-35.4085"/>
<text text-anchor="middle" x="325.5" y="-58.3" font-family="Times,serif" font-size="14.00">base_tags</text>
</g>
<!-- Video&#45;&gt;ActsAsTaggableOn::Tag -->
<g id="edge28" class="edge"><title>Video&#45;&gt;ActsAsTaggableOn::Tag</title>
<path fill="none" stroke="#7f7089" d="M420.841,-98.796C403.678,-93.9545 385.362,-85.337 375,-70 369.989,-62.583 371.119,-53.5654 374.491,-45.1875"/>
<polygon fill="#7f7089" stroke="#7f7089" points="421.033,-98.8433 429.668,-105.602 425.888,-100.038 430.743,-101.232 430.743,-101.232 430.743,-101.232 425.888,-100.038 431.819,-96.8628 421.033,-98.8433 421.033,-98.8433"/>
<polygon fill="#7f7089" stroke="#7f7089" points="374.557,-45.0566 383.066,-38.1391 376.8,-40.5882 379.044,-36.1198 379.044,-36.1198 379.044,-36.1198 376.8,-40.5882 375.022,-34.1006 374.557,-45.0566 374.557,-45.0566"/>
<text text-anchor="middle" x="386" y="-58.3" font-family="Times,serif" font-size="14.00">tags</text>
</g>
<!-- User&#45;&gt;Bid -->
<g id="edge44" class="edge"><title>User&#45;&gt;Bid</title>
<path fill="none" stroke="#b1568b" d="M669.433,-354.968C750.08,-354.348 953.262,-349.69 1120,-320 1171.29,-310.867 1228.99,-292.703 1264.16,-280.702"/>
<ellipse fill="none" stroke="#b1568b" cx="665.114" cy="-354.995" rx="4" ry="4"/>
<polygon fill="#b1568b" stroke="#b1568b" points="1264.44,-280.606 1275.36,-281.596 1269.16,-278.974 1273.89,-277.343 1273.89,-277.343 1273.89,-277.343 1269.16,-278.974 1272.42,-273.089 1264.44,-280.606 1264.44,-280.606"/>
</g>
<!-- User&#45;&gt;Community -->
<g id="edge33" class="edge"><title>User&#45;&gt;Community</title>
<path fill="none" stroke="#93e2bb" d="M669.627,-355.298C725.22,-354.752 835.316,-349.581 923,-320 924.499,-319.494 952.037,-303.303 975.734,-289.299"/>
<ellipse fill="none" stroke="#93e2bb" cx="665.507" cy="-355.324" rx="4" ry="4"/>
<polygon fill="#93e2bb" stroke="#93e2bb" points="975.959,-289.166 986.857,-287.949 980.262,-286.621 984.566,-284.076 984.566,-284.076 984.566,-284.076 980.262,-286.621 982.276,-280.203 975.959,-289.166 975.959,-289.166"/>
<text text-anchor="middle" x="1001" y="-308.3" font-family="Times,serif" font-size="14.00">own_communities</text>
</g>
<!-- User&#45;&gt;UsersRole -->
<g id="edge34" class="edge"><title>User&#45;&gt;UsersRole</title>
<path fill="none" stroke="#6184df" d="M598.87,-351.774C566.59,-347.731 518.115,-338.88 480,-320 465.866,-312.999 452.196,-302.087 441.392,-292.15"/>
<ellipse fill="none" stroke="#6184df" cx="603.145" cy="-352.278" rx="4.00001" ry="4.00001"/>
<polygon fill="#6184df" stroke="#6184df" points="441.3,-292.062 437.174,-281.902 437.683,-288.609 434.067,-285.157 434.067,-285.157 434.067,-285.157 437.683,-288.609 430.959,-288.412 441.3,-292.062 441.3,-292.062"/>
</g>
<!-- User&#45;&gt;Message -->
<g id="edge43" class="edge"><title>User&#45;&gt;Message</title>
<path fill="none" stroke="#13b1a3" d="M601.043,-346.185C585.776,-340.723 568.33,-332.337 556,-320 528.723,-292.707 513.526,-249.791 506.054,-222.024"/>
<ellipse fill="none" stroke="#13b1a3" cx="604.997" cy="-347.51" rx="4.00001" ry="4.00001"/>
<polygon fill="#13b1a3" stroke="#13b1a3" points="506.018,-221.881 507.922,-211.081 504.789,-217.034 503.56,-212.187 503.56,-212.187 503.56,-212.187 504.789,-217.034 499.198,-213.294 506.018,-221.881 506.018,-221.881"/>
</g>
<!-- User&#45;&gt;Friendship -->
<g id="edge39" class="edge"><title>User&#45;&gt;Friendship</title>
<path fill="none" stroke="#bae7da" d="M669.09,-353.724C693.59,-350.775 724.714,-342.462 741,-320 746.773,-312.037 744.454,-302.323 739.573,-293.518"/>
<ellipse fill="none" stroke="#bae7da" cx="665.047" cy="-354.131" rx="4" ry="4"/>
<polygon fill="#bae7da" stroke="#bae7da" points="739.541,-293.468 737.804,-282.641 736.792,-289.291 734.044,-285.114 734.044,-285.114 734.044,-285.114 736.792,-289.291 730.285,-287.587 739.541,-293.468 739.541,-293.468"/>
</g>
<!-- User&#45;&gt;Friendship -->
<g id="edge41" class="edge"><title>User&#45;&gt;Friendship</title>
<path fill="none" stroke="#62110d" d="M626.556,-330.12C625.359,-321.216 625.891,-311.53 631,-304 639.097,-292.066 651.975,-284.201 665.409,-279.018"/>
<ellipse fill="none" stroke="#62110d" cx="627.309" cy="-334.064" rx="4.00001" ry="4.00001"/>
<polygon fill="#62110d" stroke="#62110d" points="665.755,-278.901 676.67,-279.961 670.492,-277.299 675.228,-275.698 675.228,-275.698 675.228,-275.698 670.492,-277.299 673.787,-271.435 665.755,-278.901 665.755,-278.901"/>
<text text-anchor="middle" x="684" y="-308.3" font-family="Times,serif" font-size="14.00">inverse_friendships</text>
</g>
<!-- User&#45;&gt;Subscription -->
<g id="edge35" class="edge"><title>User&#45;&gt;Subscription</title>
<path fill="none" stroke="#26704e" d="M669.377,-353.032C739.673,-348.759 891.53,-337.58 907,-320 916.547,-309.151 907.207,-297.825 893.941,-288.61"/>
<ellipse fill="none" stroke="#26704e" cx="665.216" cy="-353.28" rx="4" ry="4"/>
<polygon fill="#26704e" stroke="#26704e" points="893.767,-288.5 887.707,-279.361 889.537,-285.834 885.307,-283.168 885.307,-283.168 885.307,-283.168 889.537,-285.834 882.908,-286.975 893.767,-288.5 893.767,-288.5"/>
</g>
<!-- User&#45;&gt;Subscription -->
<g id="edge37" class="edge"><title>User&#45;&gt;Subscription</title>
<path fill="none" stroke="#40a3a0" d="M667.384,-347.817C692.554,-341.851 727.638,-332.351 757,-320 770.212,-314.442 772.363,-310.763 785,-304 795.089,-298.601 806.116,-292.966 816.371,-287.835"/>
<ellipse fill="none" stroke="#40a3a0" cx="663.476" cy="-348.724" rx="4.00001" ry="4.00001"/>
<polygon fill="#40a3a0" stroke="#40a3a0" points="816.569,-287.737 827.527,-287.315 821.047,-285.511 825.524,-283.286 825.524,-283.286 825.524,-283.286 821.047,-285.511 823.521,-279.256 816.569,-287.737 816.569,-287.737"/>
<text text-anchor="middle" x="844" y="-308.3" font-family="Times,serif" font-size="14.00">reverse_subscriptions</text>
</g>
<!-- User&#45;&gt;Picture -->
<g id="edge31" class="edge"><title>User&#45;&gt;Picture</title>
<path fill="none" stroke="#7cdc0f" d="M669.568,-354.86C769.092,-354.099 1044.91,-349.341 1072,-320 1119.13,-268.948 1094.94,-178.117 1078.72,-133.383"/>
<ellipse fill="none" stroke="#7cdc0f" cx="665.325" cy="-354.889" rx="4" ry="4"/>
<polygon fill="#7cdc0f" stroke="#7cdc0f" points="1078.63,-133.167 1079.32,-122.223 1076.87,-128.489 1075.11,-123.81 1075.11,-123.81 1075.11,-123.81 1076.87,-128.489 1070.9,-125.397 1078.63,-133.167 1078.63,-133.167"/>
</g>
<!-- User&#45;&gt;User -->
<g id="edge36" class="edge"><title>User&#45;&gt;User</title>
<path fill="none" stroke="#2f65a7" d="M671.51,-357.455C676.038,-357.192 679,-356.707 679,-356 679,-355.293 676.038,-354.808 671.51,-354.545"/>
<polygon fill="#2f65a7" stroke="#2f65a7" points="671.238,-357.461 661.139,-353.187 666.24,-357.573 661.241,-357.686 661.241,-357.686 661.241,-357.686 666.24,-357.573 661.342,-362.185 671.238,-357.461 671.238,-357.461"/>
<polygon fill="#2f65a7" stroke="#2f65a7" points="671.238,-354.539 661.342,-349.815 666.24,-354.427 661.241,-354.314 661.241,-354.314 661.241,-354.314 666.24,-354.427 661.139,-358.813 671.238,-354.539 671.238,-354.539"/>
<text text-anchor="middle" x="698.5" y="-352.3" font-family="Times,serif" font-size="14.00">leaders</text>
</g>
<!-- User&#45;&gt;User -->
<g id="edge38" class="edge"><title>User&#45;&gt;User</title>
<path fill="none" stroke="#31bacf" d="M671.224,-359.204C694.366,-359.824 718,-358.756 718,-356 718,-353.244 694.366,-352.176 671.224,-352.796"/>
<polygon fill="#31bacf" stroke="#31bacf" points="671.054,-359.198 661.232,-354.321 666.057,-359.008 661.061,-358.818 661.061,-358.818 661.061,-358.818 666.057,-359.008 660.89,-363.315 671.054,-359.198 671.054,-359.198"/>
<polygon fill="#31bacf" stroke="#31bacf" points="671.054,-352.802 660.89,-348.685 666.057,-352.992 661.061,-353.182 661.061,-353.182 661.061,-353.182 666.057,-352.992 661.232,-357.679 671.054,-352.802 671.054,-352.802"/>
<text text-anchor="middle" x="748.5" y="-352.3" font-family="Times,serif" font-size="14.00">subscribers</text>
</g>
<!-- User&#45;&gt;User -->
<g id="edge40" class="edge"><title>User&#45;&gt;User</title>
<path fill="none" stroke="#75bba8" d="M670.956,-359.955C715.452,-362.272 779,-360.954 779,-356 779,-351.046 715.452,-349.728 670.956,-352.045"/>
<polygon fill="#75bba8" stroke="#75bba8" points="670.925,-359.953 661.216,-354.856 665.934,-359.65 660.943,-359.348 660.943,-359.348 660.943,-359.348 665.934,-359.65 660.671,-363.839 670.925,-359.953 670.925,-359.953"/>
<polygon fill="#75bba8" stroke="#75bba8" points="670.925,-352.047 660.671,-348.161 665.934,-352.35 660.943,-352.652 660.943,-352.652 660.943,-352.652 665.934,-352.35 661.216,-357.144 670.925,-352.047 670.925,-352.047"/>
<text text-anchor="middle" x="798" y="-352.3" font-family="Times,serif" font-size="14.00">friends</text>
</g>
<!-- User&#45;&gt;User -->
<g id="edge42" class="edge"><title>User&#45;&gt;User</title>
<path fill="none" stroke="#6c0454" d="M670.803,-360.694C726.691,-364.548 817,-362.983 817,-356 817,-349.017 726.691,-347.452 670.803,-351.306"/>
<polygon fill="#6c0454" stroke="#6c0454" points="670.767,-360.692 661.149,-355.426 665.782,-360.302 660.798,-359.912 660.798,-359.912 660.798,-359.912 665.782,-360.302 660.447,-364.398 670.767,-360.692 670.767,-360.692"/>
<polygon fill="#6c0454" stroke="#6c0454" points="670.767,-351.308 660.447,-347.602 665.782,-351.698 660.798,-352.088 660.798,-352.088 660.798,-352.088 665.782,-351.698 661.149,-356.574 670.767,-351.308 670.767,-351.308"/>
<text text-anchor="middle" x="859" y="-352.3" font-family="Times,serif" font-size="14.00">inverse_friends</text>
</g>
<!-- User&#45;&gt;Song -->
<g id="edge32" class="edge"><title>User&#45;&gt;Song</title>
<path fill="none" stroke="#b4b0ce" d="M620.789,-329.332C619.649,-326.252 618.675,-323.099 618,-320 616.487,-313.052 617.478,-311.092 618,-304 619.783,-279.804 619.974,-273.502 626,-250 636.765,-208.016 655.434,-161.253 667.497,-132.99"/>
<polygon fill="#b4b0ce" stroke="#b4b0ce" points="620.895,-329.579 620.694,-340.543 622.863,-334.175 624.831,-338.771 624.831,-338.771 624.831,-338.771 622.863,-334.175 628.968,-337 620.895,-329.579 620.895,-329.579"/>
<polygon fill="#b4b0ce" stroke="#b4b0ce" points="667.5,-132.984 675.596,-125.587 669.482,-128.393 671.465,-123.803 671.465,-123.803 671.465,-123.803 669.482,-128.393 667.333,-122.019 667.5,-132.984 667.5,-132.984"/>
</g>
<!-- User&#45;&gt;Post -->
<g id="edge30" class="edge"><title>User&#45;&gt;Post</title>
<path fill="none" stroke="#3047e9" d="M623.622,-330.875C621.283,-322.292 620.212,-312.621 623,-304 632.108,-275.831 638.7,-268.263 662,-250 692.124,-226.388 733.747,-211.545 762.988,-203.312"/>
<ellipse fill="none" stroke="#3047e9" cx="624.931" cy="-334.899" rx="4.00001" ry="4.00001"/>
<polygon fill="#3047e9" stroke="#3047e9" points="763.12,-203.276 773.947,-205.017 767.948,-201.974 772.775,-200.672 772.775,-200.672 772.775,-200.672 767.948,-201.974 771.603,-196.327 763.12,-203.276 763.12,-203.276"/>
</g>
<!-- Song&#45;&gt;ActsAsTaggableOn::Tagging -->
<g id="edge45" class="edge"><title>Song&#45;&gt;ActsAsTaggableOn::Tagging</title>
<path fill="none" stroke="#c7224d" d="M715.316,-102.18C814.664,-94.4341 1084.15,-73.191 1093,-70 1104.71,-65.7761 1104.47,-58.7072 1116,-54 1146.5,-41.5452 1181.28,-33.5222 1213.5,-28.3541"/>
<ellipse fill="none" stroke="#c7224d" cx="711.062" cy="-102.512" rx="4" ry="4"/>
<polygon fill="#c7224d" stroke="#c7224d" points="1213.52,-28.3503 1224.09,-31.2885 1218.47,-27.5952 1223.41,-26.8401 1223.41,-26.8401 1223.41,-26.8401 1218.47,-27.5952 1222.73,-22.3917 1213.52,-28.3503 1213.52,-28.3503"/>
<text text-anchor="middle" x="1139" y="-58.3" font-family="Times,serif" font-size="14.00">taggings</text>
</g>
<!-- Song&#45;&gt;ActsAsTaggableOn::Tagging -->
<g id="edge47" class="edge"><title>Song&#45;&gt;ActsAsTaggableOn::Tagging</title>
<path fill="none" stroke="#6a445c" d="M714.939,-102.028C757.624,-98.5274 830.983,-92.6074 894,-88 953.531,-83.6474 1106.65,-92.3328 1162,-70 1172.24,-65.8695 1171.16,-59.0074 1181,-54 1197.96,-45.3697 1217.15,-38.793 1235.83,-33.807"/>
<ellipse fill="none" stroke="#6a445c" cx="710.81" cy="-102.367" rx="4" ry="4"/>
<polygon fill="#6a445c" stroke="#6a445c" points="1235.84,-33.8045 1246.64,-35.7037 1240.68,-32.5734 1245.53,-31.3422 1245.53,-31.3422 1245.53,-31.3422 1240.68,-32.5734 1244.42,-26.9807 1235.84,-33.8045 1235.84,-33.8045"/>
<text text-anchor="middle" x="1216" y="-58.3" font-family="Times,serif" font-size="14.00">tag_taggings</text>
</g>
<!-- Song&#45;&gt;ActsAsTaggableOn::Tag -->
<g id="edge46" class="edge"><title>Song&#45;&gt;ActsAsTaggableOn::Tag</title>
<path fill="none" stroke="#48afd2" d="M673.043,-77.816C669.758,-68.9183 664.712,-59.8314 657,-54 632.236,-35.2749 560.967,-26.5624 498.571,-22.5114"/>
<polygon fill="#48afd2" stroke="#48afd2" points="673.112,-78.0399 671.751,-88.921 674.582,-82.8189 676.052,-87.5979 676.052,-87.5979 676.052,-87.5979 674.582,-82.8189 680.353,-86.2748 673.112,-78.0399 673.112,-78.0399"/>
<polygon fill="#48afd2" stroke="#48afd2" points="498.223,-22.4902 488.518,-17.3857 493.233,-22.1837 488.242,-21.8773 488.242,-21.8773 488.242,-21.8773 493.233,-22.1837 487.966,-26.3688 498.223,-22.4902 498.223,-22.4902"/>
<text text-anchor="middle" x="696.5" y="-58.3" font-family="Times,serif" font-size="14.00">base_tags</text>
</g>
<!-- Song&#45;&gt;ActsAsTaggableOn::Tag -->
<g id="edge48" class="edge"><title>Song&#45;&gt;ActsAsTaggableOn::Tag</title>
<path fill="none" stroke="#3300ed" d="M643.713,-95.3492C632.953,-92.6657 621.048,-89.9546 610,-88 537.36,-75.1481 511.823,-101.248 445,-70 437.883,-66.6721 425.364,-54.761 414.279,-43.2866"/>
<polygon fill="#3300ed" stroke="#3300ed" points="643.927,-95.4038 652.495,-102.247 648.77,-96.6459 653.613,-97.888 653.613,-97.888 653.613,-97.888 648.77,-96.6459 654.731,-93.5291 643.927,-95.4038 643.927,-95.4038"/>
<polygon fill="#3300ed" stroke="#3300ed" points="414.157,-43.1577 410.537,-32.8063 410.715,-39.5308 407.273,-35.9039 407.273,-35.9039 407.273,-35.9039 410.715,-39.5308 404.009,-39.0015 414.157,-43.1577 414.157,-43.1577"/>
<text text-anchor="middle" x="456" y="-58.3" font-family="Times,serif" font-size="14.00">tags</text>
</g>
<!-- Post&#45;&gt;Comment -->
<g id="edge56" class="edge"><title>Post&#45;&gt;Comment</title>
<path fill="none" stroke="#165f7d" d="M819.436,-173.373C842.988,-150.667 880.342,-111.107 902,-70 905.869,-62.6573 908.751,-54.1417 910.861,-46.1967"/>
<ellipse fill="none" stroke="#165f7d" cx="816.372" cy="-176.288" rx="4.00002" ry="4.00002"/>
<polygon fill="#165f7d" stroke="#165f7d" points="910.916,-45.9617 917.588,-37.2591 912.062,-41.0947 913.207,-36.2278 913.207,-36.2278 913.207,-36.2278 912.062,-41.0947 908.827,-35.1965 910.916,-45.9617 910.916,-45.9617"/>
<text text-anchor="middle" x="940" y="-102.3" font-family="Times,serif" font-size="14.00">comment_threads</text>
</g>
<!-- Post&#45;&gt;Picture -->
<g id="edge49" class="edge"><title>Post&#45;&gt;Picture</title>
<path fill="none" stroke="#cbfcf7" d="M832.491,-188.673C867.362,-183.659 922.459,-173.973 968,-158 992.18,-149.519 1017.9,-136.296 1037.2,-125.44"/>
<ellipse fill="none" stroke="#cbfcf7" cx="828.471" cy="-189.235" rx="4.00001" ry="4.00001"/>
<polygon fill="#cbfcf7" stroke="#cbfcf7" points="1037.45,-125.299 1048.36,-124.237 1041.79,-122.816 1046.13,-120.332 1046.13,-120.332 1046.13,-120.332 1041.79,-122.816 1043.89,-116.426 1037.45,-125.299 1037.45,-125.299"/>
</g>
<!-- Post&#45;&gt;Video -->
<g id="edge51" class="edge"><title>Post&#45;&gt;Video</title>
<path fill="none" stroke="#859365" d="M763.526,-188.215C725.374,-182.55 662.238,-172.078 609,-158 569.934,-147.669 526.33,-131.998 496.831,-120.755"/>
<ellipse fill="none" stroke="#859365" cx="767.78" cy="-188.838" rx="4.00001" ry="4.00001"/>
<polygon fill="#859365" stroke="#859365" points="496.728,-120.715 489.01,-112.926 492.062,-118.92 487.395,-117.126 487.395,-117.126 487.395,-117.126 492.062,-118.92 485.78,-121.326 496.728,-120.715 496.728,-120.715"/>
</g>
<!-- Post&#45;&gt;Song -->
<g id="edge50" class="edge"><title>Post&#45;&gt;Song</title>
<path fill="none" stroke="#48d0e8" d="M773.752,-175.476C753.843,-161.089 725.701,-140.75 705.262,-125.979"/>
<ellipse fill="none" stroke="#48d0e8" cx="777.199" cy="-177.967" rx="4.00002" ry="4.00002"/>
<polygon fill="#48d0e8" stroke="#48d0e8" points="705.126,-125.881 699.657,-116.376 701.074,-122.952 697.021,-120.024 697.021,-120.024 697.021,-120.024 701.074,-122.952 694.385,-123.671 705.126,-125.881 705.126,-125.881"/>
</g>
<!-- Post&#45;&gt;ActsAsTaggableOn::Tagging -->
<g id="edge52" class="edge"><title>Post&#45;&gt;ActsAsTaggableOn::Tagging</title>
<path fill="none" stroke="#16348b" d="M831.952,-187.664C872.34,-181.197 941.753,-169.704 1001,-158 1141.27,-130.29 1175.24,-118.202 1315,-88 1353.17,-79.7514 1376.38,-100.31 1401,-70 1411.37,-57.2322 1401.2,-46.5616 1385.17,-38.3363"/>
<ellipse fill="none" stroke="#16348b" cx="827.981" cy="-188.297" rx="4.00001" ry="4.00001"/>
<polygon fill="#16348b" stroke="#16348b" points="1384.85,-38.1873 1377.63,-29.9298 1380.3,-36.1039 1375.76,-34.0205 1375.76,-34.0205 1375.76,-34.0205 1380.3,-36.1039 1373.88,-38.1113 1384.85,-38.1873 1384.85,-38.1873"/>
<text text-anchor="middle" x="1338" y="-102.3" font-family="Times,serif" font-size="14.00">taggings</text>
</g>
<!-- Post&#45;&gt;ActsAsTaggableOn::Tagging -->
<g id="edge54" class="edge"><title>Post&#45;&gt;ActsAsTaggableOn::Tagging</title>
<path fill="none" stroke="#1145f4" d="M833.15,-191.67C941.223,-187.121 1266.97,-169.848 1361,-124 1381.34,-114.083 1380.58,-103.574 1397,-88 1405.68,-79.7691 1412.13,-80.9243 1417,-70 1419.89,-63.504 1421.06,-59.8401 1417,-54 1412.39,-47.3632 1406.36,-41.9825 1399.58,-37.6206"/>
<ellipse fill="none" stroke="#1145f4" cx="829.151" cy="-191.835" rx="4" ry="4"/>
<polygon fill="#1145f4" stroke="#1145f4" points="1399.37,-37.5024 1392.84,-28.6946 1395.01,-35.0624 1390.64,-32.6224 1390.64,-32.6224 1390.64,-32.6224 1395.01,-35.0624 1388.45,-36.5502 1399.37,-37.5024 1399.37,-37.5024"/>
<text text-anchor="middle" x="1432" y="-102.3" font-family="Times,serif" font-size="14.00">tag_taggings</text>
</g>
<!-- Post&#45;&gt;ActsAsTaggableOn::Tag -->
<g id="edge53" class="edge"><title>Post&#45;&gt;ActsAsTaggableOn::Tag</title>
<path fill="none" stroke="#6e4d78" d="M760.783,-192.81C684.221,-191.197 504.786,-181.069 368,-124 329.424,-107.905 310.287,-107.083 291,-70 282.315,-53.3012 294.281,-41.958 312.657,-34.3007"/>
<polygon fill="#6e4d78" stroke="#6e4d78" points="760.89,-192.812 770.811,-197.484 765.89,-192.898 770.889,-192.985 770.889,-192.985 770.889,-192.985 765.89,-192.898 770.967,-188.486 760.89,-192.812 760.89,-192.812"/>
<polygon fill="#6e4d78" stroke="#6e4d78" points="312.74,-34.2703 323.678,-35.0558 317.435,-32.5504 322.13,-30.8304 322.13,-30.8304 322.13,-30.8304 317.435,-32.5504 320.582,-26.605 312.74,-34.2703 312.74,-34.2703"/>
<text text-anchor="middle" x="394.5" y="-102.3" font-family="Times,serif" font-size="14.00">base_tags</text>
</g>
<!-- Post&#45;&gt;ActsAsTaggableOn::Tag -->
<g id="edge55" class="edge"><title>Post&#45;&gt;ActsAsTaggableOn::Tag</title>
<path fill="none" stroke="#196b25" d="M766.007,-180.24C712.284,-159.125 600.262,-116.429 503,-88 468.851,-78.0184 454.128,-90.4293 425,-70 416.064,-63.7323 408.959,-54.1964 403.666,-45.0594"/>
<polygon fill="#196b25" stroke="#196b25" points="766.041,-180.254 773.692,-188.109 770.692,-182.089 775.344,-183.923 775.344,-183.923 775.344,-183.923 770.692,-182.089 776.995,-179.737 766.041,-180.254 766.041,-180.254"/>
<polygon fill="#196b25" stroke="#196b25" points="403.651,-45.031 402.954,-34.0873 401.313,-40.6111 398.976,-36.1912 398.976,-36.1912 398.976,-36.1912 401.313,-40.6111 394.998,-38.2951 403.651,-45.031 403.651,-45.031"/>
<text text-anchor="middle" x="624" y="-102.3" font-family="Times,serif" font-size="14.00">tags</text>
</g>
</g>
</svg>
